<?xml version="1.0" encoding="UTF-8" standalone="no"?>
<svg
   xmlns:dc="http://purl.org/dc/elements/1.1/"
   xmlns:cc="http://creativecommons.org/ns#"
   xmlns:rdf="http://www.w3.org/1999/02/22-rdf-syntax-ns#"
   xmlns:svg="http://www.w3.org/2000/svg"
   xmlns="http://www.w3.org/2000/svg"
   xmlns:xlink="http://www.w3.org/1999/xlink"
   xmlns:sodipodi="http://sodipodi.sourceforge.net/DTD/sodipodi-0.dtd"
   xmlns:inkscape="http://www.inkscape.org/namespaces/inkscape"
   xml:space="preserve"
   width="1280"
   height="640"
   version="1.1"
   id="svg102"
   sodipodi:docname="3dviewer_net_logo_social.svg"
   inkscape:version="0.92.4 (5da689c313, 2019-01-14)"
   inkscape:export-filename="C:\Users\kovacsv\GitRepos\NewOnline3DViewer\website\assets\images\3dviewer_net_logo_social.png"
   inkscape:export-xdpi="96"
   inkscape:export-ydpi="96"><metadata
     id="metadata106"><rdf:RDF><cc:Work
         rdf:about=""><dc:format>image/svg+xml</dc:format><dc:type
           rdf:resource="http://purl.org/dc/dcmitype/StillImage" /><dc:title /></cc:Work></rdf:RDF></metadata><sodipodi:namedview
     pagecolor="#ffffff"
     bordercolor="#666666"
     borderopacity="1"
     objecttolerance="10"
     gridtolerance="10"
     guidetolerance="10"
     inkscape:pageopacity="0"
     inkscape:pageshadow="2"
     inkscape:window-width="1920"
     inkscape:window-height="1137"
     id="namedview104"
     showgrid="false"
     inkscape:zoom="0.70710678"
     inkscape:cx="470.2468"
     inkscape:cy="197.03495"
     inkscape:window-x="-8"
     inkscape:window-y="-8"
     inkscape:window-maximized="1"
     inkscape:current-layer="g4724" /><defs
     id="defs3"><inkscape:perspective
       sodipodi:type="inkscape:persp3d"
       inkscape:vp_x="23.217029 : 302.89272 : 1"
       inkscape:vp_y="0 : 1000 : 0"
       inkscape:vp_z="1280 : 320 : 1"
       inkscape:persp3d-origin="640 : 213.33333 : 1"
       id="perspective4726" /><path
       id="a"
       d="M -5,-1 H 57 V 61 H -5 Z"
       inkscape:connector-curvature="0" /></defs><clipPath
     id="b"><use
       xlink:href="#a"
       overflow="visible"
       style="overflow:visible"
       width="100%"
       height="100%"
       id="use5"
       x="0"
       y="0" /></clipPath><g
     id="g4724"
     transform="translate(4.897715,26.749242)"><rect
       style="opacity:1;fill:#ffffff;fill-opacity:1;fill-rule:nonzero;stroke:none;stroke-width:0.67433947;stroke-linecap:round;stroke-linejoin:round;stroke-miterlimit:4;stroke-dasharray:none;stroke-dashoffset:0;stroke-opacity:1;paint-order:markers stroke fill"
       id="rect2463"
       width="1280"
       height="640"
       x="-4.8977151"
       y="-26.749241" /><g
       id="g96"
       transform="matrix(2.8229962,0,0,2.8229962,234.67277,209.56083)"
       clip-path="url(#b)"><defs
         id="defs9"><path
           inkscape:connector-curvature="0"
           d="M -5,-1 H 57 V 61 H -5 Z"
           id="c" /></defs><clipPath
         id="d"><use
           y="0"
           x="0"
           id="use11"
           height="100%"
           width="100%"
           style="overflow:visible"
           overflow="visible"
           xlink:href="#c" /></clipPath><path
         inkscape:connector-curvature="0"
         id="path14"
         style="fill:#64c0ff"
         d="M 38.4,37.1 50.8,44.4 26,58.6 1.2,44.4 13.6,37.1 26,44.4 38.4,37.1 26,44.4 13.6,37.1"
         clip-path="url(#d)" /><path
         inkscape:connector-curvature="0"
         id="path16"
         style="fill:none;stroke:#000000;stroke-width:1.03299999;stroke-linecap:round;stroke-linejoin:round;stroke-miterlimit:10"
         d="M 38.4,37.1 50.8,44.4 26,58.6 1.2,44.4 13.6,37.1 26,44.4 38.4,37.1 26,44.4 13.6,37.1"
         clip-path="url(#d)" /><path
         inkscape:connector-curvature="0"
         id="path18"
         style="fill:#64c0ff"
         d="M 26,15.6 V 1.4 L 50.8,15.6 V 44.4 L 38.4,37.1 V 22.9 Z"
         clip-path="url(#d)" /><path
         inkscape:connector-curvature="0"
         id="path20"
         style="fill:none;stroke:#000000;stroke-width:1.03299999;stroke-linecap:round;stroke-linejoin:round;stroke-miterlimit:10"
         d="M 26,15.6 V 1.4 L 50.8,15.6 V 44.4 L 38.4,37.1 V 22.9 Z"
         clip-path="url(#d)" /><path
         inkscape:connector-curvature="0"
         id="path22"
         style="fill:#64c0ff"
         d="M 38.4,22.9 26,30 v 14.4 l 12.4,-7.3 z"
         clip-path="url(#d)" /><path
         inkscape:connector-curvature="0"
         id="path24"
         style="fill:none;stroke:#000000;stroke-width:1.03299999;stroke-linecap:round;stroke-linejoin:round;stroke-miterlimit:10"
         d="M 38.4,22.9 26,30 v 14.4 l 12.4,-7.3 z"
         clip-path="url(#d)" /><path
         inkscape:connector-curvature="0"
         id="path26"
         style="fill:#64c0ff"
         d="M 13.6,22.9 26,15.6 V 1.4 L 1.2,15.6 v 28.8 l 12.4,-7.3 z"
         clip-path="url(#d)" /><path
         inkscape:connector-curvature="0"
         id="path28"
         style="fill:none;stroke:#000000;stroke-width:1.03299999;stroke-linecap:round;stroke-linejoin:round;stroke-miterlimit:10"
         d="M 13.6,22.9 26,15.6 V 1.4 L 1.2,15.6 v 28.8 l 12.4,-7.3 z"
         clip-path="url(#d)" /><path
         inkscape:connector-curvature="0"
         id="path30"
         style="fill:#64c0ff"
         d="M 38.4,22.9 26,15.6 13.6,22.9 26,30 Z"
         clip-path="url(#d)" /><path
         inkscape:connector-curvature="0"
         id="path32"
         style="fill:none;stroke:#000000;stroke-width:1.03299999;stroke-linecap:round;stroke-linejoin:round;stroke-miterlimit:10"
         d="M 38.4,22.9 26,15.6 13.6,22.9 26,30 Z"
         clip-path="url(#d)" /><path
         inkscape:connector-curvature="0"
         id="path34"
         style="fill:#64c0ff"
         d="M 13.6,37.1 V 22.9 L 26,30 v 14.4 z"
         clip-path="url(#d)" /><path
         inkscape:connector-curvature="0"
         id="path36"
         style="fill:none;stroke:#000000;stroke-width:1.03299999;stroke-linecap:round;stroke-linejoin:round;stroke-miterlimit:10"
         d="M 13.6,37.1 V 22.9 L 26,30 v 14.4 z"
         clip-path="url(#d)" /><g
         id="g84"
         clip-path="url(#d)"><defs
           id="defs39"><path
             inkscape:connector-curvature="0"
             d="M -5,-1 H 57 V 61 H -5 Z"
             id="e" /></defs><clipPath
           id="f"><use
             y="0"
             x="0"
             id="use41"
             height="100%"
             width="100%"
             style="overflow:visible"
             overflow="visible"
             xlink:href="#e" /></clipPath><g
           id="g52"
           style="opacity:0.3"
           clip-path="url(#f)"><defs
             id="defs45"><path
               inkscape:connector-curvature="0"
               d="m 26,1.4 h 24.8 v 43 H 26 Z"
               id="g" /></defs><clipPath
             id="h"><use
               y="0"
               x="0"
               id="use47"
               height="100%"
               width="100%"
               style="overflow:visible"
               overflow="visible"
               xlink:href="#g" /></clipPath><path
             inkscape:connector-curvature="0"
             id="path50"
             style="fill:#010202"
             d="M 26,15.6 V 1.4 L 50.8,15.6 V 44.4 L 38.4,37.1 V 22.9 Z"
             clip-path="url(#h)" /></g><g
           id="g62"
           style="opacity:0.6"
           clip-path="url(#f)"><defs
             id="defs55"><path
               inkscape:connector-curvature="0"
               d="M 26,22.9 H 38.4 V 44.4 H 26 Z"
               id="i" /></defs><clipPath
             id="j"><use
               y="0"
               x="0"
               id="use57"
               height="100%"
               width="100%"
               style="overflow:visible"
               overflow="visible"
               xlink:href="#i" /></clipPath><path
             inkscape:connector-curvature="0"
             id="path60"
             style="fill:#010202"
             d="M 38.4,22.9 26,30 v 14.4 l 12.4,-7.3 z"
             clip-path="url(#j)" /></g><g
           id="g72"
           style="opacity:0.6"
           clip-path="url(#f)"><defs
             id="defs65"><path
               inkscape:connector-curvature="0"
               d="M 1.2,1.4 H 26 v 43 H 1.2 Z"
               id="k" /></defs><clipPath
             id="l"><use
               y="0"
               x="0"
               id="use67"
               height="100%"
               width="100%"
               style="overflow:visible"
               overflow="visible"
               xlink:href="#k" /></clipPath><path
             inkscape:connector-curvature="0"
             id="path70"
             style="fill:#010202"
             d="M 13.6,22.9 26,15.6 V 1.4 L 1.2,15.6 v 28.8 l 12.4,-7.3 z"
             clip-path="url(#l)" /></g><g
           id="g82"
           style="opacity:0.3"
           clip-path="url(#f)"><defs
             id="defs75"><path
               inkscape:connector-curvature="0"
               d="M 13.6,22.9 H 26 V 44.4 H 13.6 Z"
               id="m" /></defs><clipPath
             id="n"><use
               y="0"
               x="0"
               id="use77"
               height="100%"
               width="100%"
               style="overflow:visible"
               overflow="visible"
               xlink:href="#m" /></clipPath><path
             inkscape:connector-curvature="0"
             id="path80"
             style="fill:#010202"
             d="M 13.6,37.1 V 22.9 L 26,30 v 14.4 z"
             clip-path="url(#n)" /></g></g><path
         inkscape:connector-curvature="0"
         id="path86"
         style="fill:none;stroke:#000000;stroke-width:1.03299999;stroke-linecap:round;stroke-linejoin:round;stroke-miterlimit:10"
         d="M 38.4,37.1 50.8,44.4 26,58.6 1.2,44.4 13.6,37.1 26,44.4 38.4,37.1 26,44.4 13.6,37.1"
         clip-path="url(#d)" /><path
         inkscape:connector-curvature="0"
         id="path88"
         style="fill:none;stroke:#000000;stroke-width:1.03299999;stroke-linecap:round;stroke-linejoin:round;stroke-miterlimit:10"
         d="M 26,15.6 V 1.4 L 50.8,15.6 V 44.4 L 38.4,37.1 V 22.9 Z"
         clip-path="url(#d)" /><path
         inkscape:connector-curvature="0"
         id="path90"
         style="fill:none;stroke:#000000;stroke-width:1.03299999;stroke-linecap:round;stroke-linejoin:round;stroke-miterlimit:10"
         d="M 38.4,22.9 26,30 V 44.4 L 38.4,37.1 Z M 13.6,22.9 26,15.6 V 1.4 L 1.2,15.6 v 28.8 l 12.4,-7.3 z"
         clip-path="url(#d)" /><path
         inkscape:connector-curvature="0"
         id="path92"
         style="fill:none;stroke:#000000;stroke-width:1.03299999;stroke-linecap:round;stroke-linejoin:round;stroke-miterlimit:10"
         d="M 38.4,22.9 26,15.6 13.6,22.9 26,30 Z"
         clip-path="url(#d)" /><path
         inkscape:connector-curvature="0"
         id="path94"
         style="fill:none;stroke:#000000;stroke-width:1.03299999;stroke-linecap:round;stroke-linejoin:round;stroke-miterlimit:10"
         d="M 13.6,37.1 V 22.9 L 26,30 v 14.4 z"
         clip-path="url(#d)" /></g><g
       transform="matrix(2.8229962,0,0,2.8229962,233.77788,208.4768)"
       id="g100"
       style="font-style:normal;font-variant:normal;font-weight:400;font-stretch:normal;font-size:29.64075851px;line-height:1.25;font-family:Milliard;-inkscape-font-specification:Milliard;letter-spacing:0;word-spacing:0;fill:#15334a;fill-opacity:1;stroke:none;stroke-width:2.22305679"><path
         inkscape:connector-curvature="0"
         id="path98"
         aria-label="ONLINE 3D VIEWER"
         transform="matrix(0.78095,0,0,0.78095,14.238,8.152)"
         style="font-size:29.16465187px;fill:#15334a;fill-opacity:1;stroke-width:2.22305679"
         d="M 75.237,18.5 C 69.229,18.5 65,23.02 65,29.028 c 0,5.98 4.229,10.47 10.237,10.47 5.979,0 10.207,-4.49 10.207,-10.47 0,-6.007 -4.228,-10.528 -10.207,-10.528 z m 6.97,10.528 c 0,4.375 -2.741,7.612 -6.97,7.612 -4.23,0 -7,-3.237 -7,-7.612 0,-4.403 2.77,-7.699 7,-7.699 4.229,0 6.97,3.296 6.97,7.7 z M 104.046,18.792 V 35.124 L 93.14,18.792 h -3.88 v 20.415 h 3.091 v -16.39 l 10.879,16.39 h 3.908 V 18.792 Z m 10.978,17.615 V 18.792 h -3.15 v 20.415 h 13.649 v -2.8 z m 14.597,-17.615 v 20.415 h 3.15 V 18.792 Z m 22.843,0 V 35.124 L 141.557,18.792 h -3.88 v 20.415 h 3.092 v -16.39 l 10.879,16.39 h 3.908 V 18.792 Z m 22.031,2.741 v -2.741 h -14.203 v 20.415 h 14.203 v -2.742 h -11.112 v -6.59 h 10.733 V 27.22 h -10.733 v -5.687 z m 18.205,6.067 5.599,-8.663 v -0.145 h -13.24 v 2.712 h 8.486 l -5.425,8.195 v 0.146 h 2.625 c 2.77,0 4.696,1.458 4.696,3.47 0,1.984 -1.663,3.442 -4.083,3.442 -1.692,0 -3.908,-0.67 -6.33,-2.07 v 3.382 c 2.334,1.05 4.434,1.459 6.242,1.43 4.258,-0.03 7.291,-2.538 7.291,-6.154 0,-3.092 -2.537,-5.25 -5.862,-5.746 z m 17.266,-8.808 h -7.408 v 20.415 h 7.408 c 6.183,0 10.849,-4.2 10.849,-10.208 0,-5.92 -4.666,-10.207 -10.85,-10.207 z m 0.029,17.586 h -4.287 V 21.62 h 4.287 c 4.345,0 7.583,3.062 7.583,7.378 0,4.346 -3.15,7.379 -7.583,7.379 z m 34.925,-17.586 -5.833,17.47 -5.862,-17.47 h -3.587 l 7.262,20.415 h 4.316 l 7.291,-20.415 z m 7.056,0 v 20.415 h 3.15 V 18.792 Z m 22.26,2.741 v -2.741 h -14.203 v 20.415 h 14.203 v -2.742 h -11.112 v -6.59 h 10.733 V 27.22 h -10.733 v -5.687 z m 29.18,-2.741 -3.996,17.09 -5.308,-17.09 h -3.733 l -5.045,17.061 -4.229,-17.061 h -3.733 l 5.687,20.415 h 4.404 l 4.754,-17.411 5.045,17.41 h 4.404 l 5.454,-20.414 z m 21.231,2.741 v -2.741 h -14.203 v 20.415 h 14.203 v -2.742 h -11.111 v -6.59 h 10.732 V 27.22 H 313.536 V 21.533 Z M 341.9,39.207 h 4.024 l -6.27,-8.341 c 3.353,-0.525 5.6,-2.946 5.6,-6.037 0,-3.413 -2.888,-6.037 -7,-6.037 h -9.012 v 20.415 h 3.15 v -8.225 h 3.995 z m -9.508,-17.703 h 5.745 c 2.391,0 4.025,1.458 4.025,3.354 0,1.954 -1.634,3.5 -4.025,3.5 h -5.745 z" /></g></g></svg>