<?xml version="1.0" encoding="UTF-8" standalone="no"?>
<svg
   xml:space="preserve"
   width="60"
   height="60"
   version="1.1"
   id="svg100"
   xmlns:xlink="http://www.w3.org/1999/xlink"
   xmlns="http://www.w3.org/2000/svg"
   xmlns:svg="http://www.w3.org/2000/svg"><defs
     id="defs104"><clipPath
       id="d-5"><use
         xlink:href="#c"
         overflow="visible"
         style="overflow:visible"
         width="100%"
         height="100%"
         id="use11-8" /></clipPath></defs><g
     transform="translate(4.4,-0.117)"
     id="g98"><defs
       id="defs3"><path
         id="a"
         d="M -5,-1 H 57 V 61 H -5 Z" /></defs><clipPath
       id="b"><use
         xlink:href="#a"
         overflow="visible"
         style="overflow:visible"
         width="100%"
         height="100%"
         id="use5"
         x="0"
         y="0" /></clipPath><g
       clip-path="url(#b)"
       id="g96"><defs
         id="defs9"><path
           id="c"
           d="M -5,-1 H 57 V 61 H -5 Z" /></defs><clipPath
         id="d"><use
           xlink:href="#c"
           overflow="visible"
           style="overflow:visible"
           width="100%"
           height="100%"
           id="use11"
           x="0"
           y="0" /></clipPath><path
         clip-path="url(#d)"
         style="fill:#4688b4;fill-opacity:1;stroke:#000000;stroke-width:1;stroke-linecap:round;stroke-linejoin:round;stroke-miterlimit:10;stroke-dasharray:none"
         d="M 38.4,22.9 25.960908,15.6 V 1.4 l 24.8,14.2 V 44.4 L 38.4,37.1 Z"
         id="path20"
         transform="translate(0.03909208,0.0225695)" /><path
         clip-path="url(#d-5)"
         style="fill:#64c0ff;fill-opacity:1;stroke:#000000;stroke-width:1;stroke-linecap:round;stroke-linejoin:round;stroke-miterlimit:10;stroke-dasharray:none"
         d="M 38.4,22.9 26,15.6 26.019546,1.4338547 50.8,15.6 l 0,28.8 -12.4,-7.3 z"
         id="path20-5"
         transform="rotate(120,26,30.081713)" /><path
         clip-path="url(#d)"
         style="fill:#294e67;fill-opacity:1;stroke:#000000;stroke-width:1;stroke-linecap:round;stroke-linejoin:round;stroke-miterlimit:10;stroke-dasharray:none"
         d="M 26,30 V 44.4 L 38.4,37.1 V 22.9 Z"
         id="path24" /><path
         clip-path="url(#d)"
         style="fill:#294e67;fill-opacity:1;stroke:#000000;stroke-width:1;stroke-linecap:round;stroke-linejoin:round;stroke-miterlimit:10;stroke-dasharray:none"
         d="M 13.6,37.1 V 22.9 L 26,15.6 V 1.4225695 L 1.2,15.6 v 28.8 z"
         id="path28" /><path
         clip-path="url(#d)"
         style="fill:#64c0ff;fill-opacity:1;stroke:#000000;stroke-width:1;stroke-linecap:round;stroke-linejoin:round;stroke-miterlimit:10;stroke-dasharray:none"
         d="M 26,15.6 13.6,22.9 26,30 38.4,22.9 Z"
         id="path92" /><path
         clip-path="url(#d)"
         style="fill:#4688b4;fill-opacity:1;stroke:#000000;stroke-width:1;stroke-linecap:round;stroke-linejoin:round;stroke-miterlimit:10;stroke-dasharray:none"
         d="M 13.6,22.9 26,30 V 44.4 L 13.6,37.1 Z"
         id="path94" /></g></g></svg>
