<svg xmlns="http://www.w3.org/2000/svg" xmlns:xlink="http://www.w3.org/1999/xlink" xml:space="preserve" width="1280" height="640"><defs><path id="a" d="M-5-1h62v62H-5z"/></defs><clipPath id="b"><use xlink:href="#a" overflow="visible" style="overflow:visible" width="100%" height="100%"/></clipPath><path style="opacity:1;fill:#fff;fill-opacity:1;fill-rule:nonzero;stroke:none;stroke-width:.67433947;stroke-linecap:round;stroke-linejoin:round;stroke-miterlimit:4;stroke-dasharray:none;stroke-dashoffset:0;stroke-opacity:1;paint-order:markers stroke fill" d="M-4.898-26.749h1280v640h-1280z" transform="translate(4.898 26.75)"/><g transform="translate(239.57 236.31) scale(2.823)" clip-path="url(#b)"><defs><path d="M-5-1h62v62H-5z" id="c"/></defs><clipPath id="d"><use height="100%" width="100%" style="overflow:visible" overflow="visible" xlink:href="#c"/></clipPath><path style="fill:#64c0ff" d="m38.4 37.1 12.4 7.3L26 58.6 1.2 44.4l12.4-7.3L26 44.4l12.4-7.3L26 44.4l-12.4-7.3" clip-path="url(#d)"/><path style="fill:none;stroke:#000;stroke-width:1.03299999;stroke-linecap:round;stroke-linejoin:round;stroke-miterlimit:10" d="m38.4 37.1 12.4 7.3L26 58.6 1.2 44.4l12.4-7.3L26 44.4l12.4-7.3L26 44.4l-12.4-7.3" clip-path="url(#d)"/><path style="fill:#64c0ff" d="M26 15.6V1.4l24.8 14.2v28.8l-12.4-7.3V22.9z" clip-path="url(#d)"/><path style="fill:none;stroke:#000;stroke-width:1.03299999;stroke-linecap:round;stroke-linejoin:round;stroke-miterlimit:10" d="M26 15.6V1.4l24.8 14.2v28.8l-12.4-7.3V22.9z" clip-path="url(#d)"/><path style="fill:#64c0ff" d="M38.4 22.9 26 30v14.4l12.4-7.3z" clip-path="url(#d)"/><path style="fill:none;stroke:#000;stroke-width:1.03299999;stroke-linecap:round;stroke-linejoin:round;stroke-miterlimit:10" d="M38.4 22.9 26 30v14.4l12.4-7.3z" clip-path="url(#d)"/><path style="fill:#64c0ff" d="M13.6 22.9 26 15.6V1.4L1.2 15.6v28.8l12.4-7.3z" clip-path="url(#d)"/><path style="fill:none;stroke:#000;stroke-width:1.03299999;stroke-linecap:round;stroke-linejoin:round;stroke-miterlimit:10" d="M13.6 22.9 26 15.6V1.4L1.2 15.6v28.8l12.4-7.3z" clip-path="url(#d)"/><path style="fill:#64c0ff" d="M38.4 22.9 26 15.6l-12.4 7.3L26 30z" clip-path="url(#d)"/><path style="fill:none;stroke:#000;stroke-width:1.03299999;stroke-linecap:round;stroke-linejoin:round;stroke-miterlimit:10" d="M38.4 22.9 26 15.6l-12.4 7.3L26 30z" clip-path="url(#d)"/><path style="fill:#64c0ff" d="M13.6 37.1V22.9L26 30v14.4z" clip-path="url(#d)"/><path style="fill:none;stroke:#000;stroke-width:1.03299999;stroke-linecap:round;stroke-linejoin:round;stroke-miterlimit:10" d="M13.6 37.1V22.9L26 30v14.4z" clip-path="url(#d)"/><g clip-path="url(#d)"><defs><path d="M-5-1h62v62H-5z" id="e"/></defs><clipPath id="f"><use height="100%" width="100%" style="overflow:visible" overflow="visible" xlink:href="#e"/></clipPath><g style="opacity:.3" clip-path="url(#f)"><defs><path d="M26 1.4h24.8v43H26z" id="g"/></defs><clipPath id="h"><use height="100%" width="100%" style="overflow:visible" overflow="visible" xlink:href="#g"/></clipPath><path style="fill:#010202" d="M26 15.6V1.4l24.8 14.2v28.8l-12.4-7.3V22.9z" clip-path="url(#h)"/></g><g style="opacity:.6" clip-path="url(#f)"><defs><path d="M26 22.9h12.4v21.5H26z" id="i"/></defs><clipPath id="j"><use height="100%" width="100%" style="overflow:visible" overflow="visible" xlink:href="#i"/></clipPath><path style="fill:#010202" d="M38.4 22.9 26 30v14.4l12.4-7.3z" clip-path="url(#j)"/></g><g style="opacity:.6" clip-path="url(#f)"><defs><path d="M1.2 1.4H26v43H1.2z" id="k"/></defs><clipPath id="l"><use height="100%" width="100%" style="overflow:visible" overflow="visible" xlink:href="#k"/></clipPath><path style="fill:#010202" d="M13.6 22.9 26 15.6V1.4L1.2 15.6v28.8l12.4-7.3z" clip-path="url(#l)"/></g><g style="opacity:.3" clip-path="url(#f)"><defs><path d="M13.6 22.9H26v21.5H13.6z" id="m"/></defs><clipPath id="n"><use height="100%" width="100%" style="overflow:visible" overflow="visible" xlink:href="#m"/></clipPath><path style="fill:#010202" d="M13.6 37.1V22.9L26 30v14.4z" clip-path="url(#n)"/></g></g><path style="fill:none;stroke:#000;stroke-width:1.03299999;stroke-linecap:round;stroke-linejoin:round;stroke-miterlimit:10" d="m38.4 37.1 12.4 7.3L26 58.6 1.2 44.4l12.4-7.3L26 44.4l12.4-7.3L26 44.4l-12.4-7.3" clip-path="url(#d)"/><path style="fill:none;stroke:#000;stroke-width:1.03299999;stroke-linecap:round;stroke-linejoin:round;stroke-miterlimit:10" d="M26 15.6V1.4l24.8 14.2v28.8l-12.4-7.3V22.9z" clip-path="url(#d)"/><path style="fill:none;stroke:#000;stroke-width:1.03299999;stroke-linecap:round;stroke-linejoin:round;stroke-miterlimit:10" d="M38.4 22.9 26 30v14.4l12.4-7.3zm-24.8 0L26 15.6V1.4L1.2 15.6v28.8l12.4-7.3z" clip-path="url(#d)"/><path style="fill:none;stroke:#000;stroke-width:1.03299999;stroke-linecap:round;stroke-linejoin:round;stroke-miterlimit:10" d="M38.4 22.9 26 15.6l-12.4 7.3L26 30z" clip-path="url(#d)"/><path style="fill:none;stroke:#000;stroke-width:1.03299999;stroke-linecap:round;stroke-linejoin:round;stroke-miterlimit:10" d="M13.6 37.1V22.9L26 30v14.4z" clip-path="url(#d)"/></g><g style="font-style:normal;font-variant:normal;font-weight:400;font-stretch:normal;font-size:29.64075851px;line-height:1.25;font-family:Milliard;-inkscape-font-specification:Milliard;letter-spacing:0;word-spacing:0;fill:#15334a;fill-opacity:1;stroke:none;stroke-width:2.22305679"><path aria-label="ONLINE 3D VIEWER" transform="translate(278.87 258.24) scale(2.20462)" style="font-size:29.16465187px;fill:#15334a;fill-opacity:1;stroke-width:2.22305679" d="M75.237 18.5C69.229 18.5 65 23.02 65 29.028c0 5.98 4.229 10.47 10.237 10.47 5.979 0 10.207-4.49 10.207-10.47 0-6.007-4.228-10.528-10.207-10.528zm6.97 10.528c0 4.375-2.741 7.612-6.97 7.612-4.23 0-7-3.237-7-7.612 0-4.403 2.77-7.699 7-7.699 4.229 0 6.97 3.296 6.97 7.7zm21.839-10.236v16.332L93.14 18.792h-3.88v20.415h3.091v-16.39l10.879 16.39h3.908V18.792zm10.978 17.615V18.792h-3.15v20.415h13.649v-2.8zm14.597-17.615v20.415h3.15V18.792zm22.843 0v16.332l-10.907-16.332h-3.88v20.415h3.092v-16.39l10.879 16.39h3.908V18.792zm22.031 2.741v-2.741h-14.203v20.415h14.203v-2.742h-11.112v-6.59h10.733V27.22h-10.733v-5.687zM192.7 27.6l5.599-8.663v-.145h-13.24v2.712h8.486l-5.425 8.195v.146h2.625c2.77 0 4.696 1.458 4.696 3.47 0 1.984-1.663 3.442-4.083 3.442-1.692 0-3.908-.67-6.33-2.07v3.382c2.334 1.05 4.434 1.459 6.242 1.43 4.258-.03 7.291-2.538 7.291-6.154 0-3.092-2.537-5.25-5.862-5.746zm17.266-8.808h-7.408v20.415h7.408c6.183 0 10.849-4.2 10.849-10.208 0-5.92-4.666-10.207-10.85-10.207zm.029 17.586h-4.287V21.62h4.287c4.345 0 7.583 3.062 7.583 7.378 0 4.346-3.15 7.379-7.583 7.379zm34.925-17.586-5.833 17.47-5.862-17.47h-3.587l7.262 20.415h4.316l7.291-20.415zm7.056 0v20.415h3.15V18.792zm22.26 2.741v-2.741h-14.203v20.415h14.203v-2.742h-11.112v-6.59h10.733V27.22h-10.733v-5.687zm29.18-2.741-3.996 17.09-5.308-17.09h-3.733l-5.045 17.061-4.229-17.061h-3.733l5.687 20.415h4.404l4.754-17.411 5.045 17.41h4.404l5.454-20.414zm21.231 2.741v-2.741h-14.203v20.415h14.203v-2.742h-11.111v-6.59h10.732V27.22h-10.732v-5.687zM341.9 39.207h4.024l-6.27-8.341c3.353-.525 5.6-2.946 5.6-6.037 0-3.413-2.888-6.037-7-6.037h-9.012v20.415h3.15v-8.225h3.995zm-9.508-17.703h5.745c2.391 0 4.025 1.458 4.025 3.354 0 1.954-1.634 3.5-4.025 3.5h-5.745z"/></g></svg>