<svg xmlns="http://www.w3.org/2000/svg" xmlns:xlink="http://www.w3.org/1999/xlink" xml:space="preserve" width="60" height="60"><g transform="translate(4.317 -.117)"><defs><path id="a" d="M-5-1h62v62H-5z"/></defs><clipPath id="b"><use xlink:href="#a" overflow="visible" style="overflow:visible" width="100%" height="100%"/></clipPath><g clip-path="url(#b)"><defs><path id="c" d="M-5-1h62v62H-5z"/></defs><clipPath id="d"><use xlink:href="#c" overflow="visible" style="overflow:visible" width="100%" height="100%"/></clipPath><path clip-path="url(#d)" style="fill:#64c0ff" d="m38.4 37.1 12.4 7.3L26 58.6 1.2 44.4l12.4-7.3L26 44.4l12.4-7.3L26 44.4l-12.4-7.3"/><path clip-path="url(#d)" style="fill:none;stroke:#000;stroke-width:1.03330004;stroke-linecap:round;stroke-linejoin:round;stroke-miterlimit:10" d="m38.4 37.1 12.4 7.3L26 58.6 1.2 44.4l12.4-7.3L26 44.4l12.4-7.3L26 44.4l-12.4-7.3"/><path clip-path="url(#d)" style="fill:#64c0ff" d="M38.4 22.9 26 15.6V1.4l24.8 14.2v28.8l-12.4-7.3z"/><path clip-path="url(#d)" style="fill:none;stroke:#000;stroke-width:1.03330004;stroke-linecap:round;stroke-linejoin:round;stroke-miterlimit:10" d="M38.4 22.9 26 15.6V1.4l24.8 14.2v28.8l-12.4-7.3z"/><path clip-path="url(#d)" style="fill:#64c0ff" d="M26 30v14.4l12.4-7.3V22.9z"/><path clip-path="url(#d)" style="fill:none;stroke:#000;stroke-width:1.03330004;stroke-linecap:round;stroke-linejoin:round;stroke-miterlimit:10" d="M26 30v14.4l12.4-7.3V22.9z"/><path clip-path="url(#d)" style="fill:#64c0ff" d="M13.6 37.1V22.9L26 15.6V1.4L1.2 15.6v28.8z"/><path clip-path="url(#d)" style="fill:none;stroke:#000;stroke-width:1.03330004;stroke-linecap:round;stroke-linejoin:round;stroke-miterlimit:10" d="M13.6 37.1V22.9L26 15.6V1.4L1.2 15.6v28.8z"/><path clip-path="url(#d)" style="fill:#64c0ff" d="m26 15.6-12.4 7.3L26 30l12.4-7.1z"/><path clip-path="url(#d)" style="fill:none;stroke:#000;stroke-width:1.03330004;stroke-linecap:round;stroke-linejoin:round;stroke-miterlimit:10" d="m26 15.6-12.4 7.3L26 30l12.4-7.1z"/><path clip-path="url(#d)" style="fill:#64c0ff" d="M13.6 22.9 26 30v14.4l-12.4-7.3z"/><path clip-path="url(#d)" style="fill:none;stroke:#000;stroke-width:1.03330004;stroke-linecap:round;stroke-linejoin:round;stroke-miterlimit:10" d="M13.6 22.9 26 30v14.4l-12.4-7.3z"/><g clip-path="url(#d)"><defs><path id="e" d="M-5-1h62v62H-5z"/></defs><clipPath id="f"><use xlink:href="#e" overflow="visible" style="overflow:visible" width="100%" height="100%"/></clipPath><g clip-path="url(#f)" style="opacity:.3"><defs><path id="g" d="M26 1.4h24.8v43H26z"/></defs><clipPath id="h"><use xlink:href="#g" overflow="visible" style="overflow:visible" width="100%" height="100%"/></clipPath><path clip-path="url(#h)" style="fill:#010202" d="M38.4 22.9 26 15.6V1.4l24.8 14.2v28.8l-12.4-7.3z"/></g><g clip-path="url(#f)" style="opacity:.6"><defs><path id="i" d="M26 22.9h12.4v21.5H26z"/></defs><clipPath id="j"><use xlink:href="#i" overflow="visible" style="overflow:visible" width="100%" height="100%"/></clipPath><path clip-path="url(#j)" style="fill:#010202" d="M26 30v14.4l12.4-7.3V22.9z"/></g><g clip-path="url(#f)" style="opacity:.6"><defs><path id="k" d="M1.2 1.4H26v43H1.2z"/></defs><clipPath id="l"><use xlink:href="#k" overflow="visible" style="overflow:visible" width="100%" height="100%"/></clipPath><path clip-path="url(#l)" style="fill:#010202" d="M13.6 37.1V22.9L26 15.6V1.4L1.2 15.6v28.8z"/></g><g clip-path="url(#f)" style="opacity:.3"><defs><path id="m" d="M13.6 22.9H26v21.5H13.6z"/></defs><clipPath id="n"><use xlink:href="#m" overflow="visible" style="overflow:visible" width="100%" height="100%"/></clipPath><path clip-path="url(#n)" style="fill:#010202" d="M13.6 22.9 26 30v14.4l-12.4-7.3z"/></g></g><path clip-path="url(#d)" style="fill:none;stroke:#000;stroke-width:1.03330004;stroke-linecap:round;stroke-linejoin:round;stroke-miterlimit:10" d="m38.4 37.1 12.4 7.3L26 58.6 1.2 44.4l12.4-7.3L26 44.4l12.4-7.3L26 44.4l-12.4-7.3"/><path clip-path="url(#d)" style="fill:none;stroke:#000;stroke-width:1.03330004;stroke-linecap:round;stroke-linejoin:round;stroke-miterlimit:10" d="M38.4 22.9 26 15.6V1.4l24.8 14.2v28.8l-12.4-7.3z"/><path clip-path="url(#d)" style="fill:none;stroke:#000;stroke-width:1.03330004;stroke-linecap:round;stroke-linejoin:round;stroke-miterlimit:10" d="M26 30v14.4l12.4-7.3V22.9zm-12.4 7.1V22.9L26 15.6V1.4L1.2 15.6v28.8z"/><path clip-path="url(#d)" style="fill:none;stroke:#000;stroke-width:1.03330004;stroke-linecap:round;stroke-linejoin:round;stroke-miterlimit:10" d="m26 15.6-12.4 7.3L26 30l12.4-7.1z"/><path clip-path="url(#d)" style="fill:none;stroke:#000;stroke-width:1.03330004;stroke-linecap:round;stroke-linejoin:round;stroke-miterlimit:10" d="M13.6 22.9 26 30v14.4l-12.4-7.3z"/></g></g></svg>