<svg xmlns="http://www.w3.org/2000/svg" xmlns:xlink="http://www.w3.org/1999/xlink" xml:space="preserve" width="1280" height="640"><defs><path id="a" d="M-5-1h62v62H-5z"/></defs><clipPath id="b"><use xlink:href="#a" overflow="visible" style="overflow:visible" width="100%" height="100%"/></clipPath><path style="opacity:1;fill:#fff;fill-opacity:1;fill-rule:nonzero;stroke:none;stroke-width:.67433947;stroke-linecap:round;stroke-linejoin:round;stroke-miterlimit:4;stroke-dasharray:none;stroke-dashoffset:0;stroke-opacity:1;paint-order:markers stroke fill" d="M-4.898-26.749h1280v640h-1280z" transform="translate(4.898 26.75)"/><g transform="translate(444.87 94.851) scale(7.50499)" clip-path="url(#b)"><defs><path d="M-5-1h62v62H-5z" id="c"/></defs><clipPath id="d"><use height="100%" width="100%" style="overflow:visible" overflow="visible" xlink:href="#c"/></clipPath><path style="fill:#64c0ff" d="m38.4 37.1 12.4 7.3L26 58.6 1.2 44.4l12.4-7.3L26 44.4l12.4-7.3L26 44.4l-12.4-7.3" clip-path="url(#d)"/><path style="fill:none;stroke:#000;stroke-width:1.03299999;stroke-linecap:round;stroke-linejoin:round;stroke-miterlimit:10" d="m38.4 37.1 12.4 7.3L26 58.6 1.2 44.4l12.4-7.3L26 44.4l12.4-7.3L26 44.4l-12.4-7.3" clip-path="url(#d)"/><path style="fill:#64c0ff" d="M26 15.6V1.4l24.8 14.2v28.8l-12.4-7.3V22.9z" clip-path="url(#d)"/><path style="fill:none;stroke:#000;stroke-width:1.03299999;stroke-linecap:round;stroke-linejoin:round;stroke-miterlimit:10" d="M26 15.6V1.4l24.8 14.2v28.8l-12.4-7.3V22.9z" clip-path="url(#d)"/><path style="fill:#64c0ff" d="M38.4 22.9 26 30v14.4l12.4-7.3z" clip-path="url(#d)"/><path style="fill:none;stroke:#000;stroke-width:1.03299999;stroke-linecap:round;stroke-linejoin:round;stroke-miterlimit:10" d="M38.4 22.9 26 30v14.4l12.4-7.3z" clip-path="url(#d)"/><path style="fill:#64c0ff" d="M13.6 22.9 26 15.6V1.4L1.2 15.6v28.8l12.4-7.3z" clip-path="url(#d)"/><path style="fill:none;stroke:#000;stroke-width:1.03299999;stroke-linecap:round;stroke-linejoin:round;stroke-miterlimit:10" d="M13.6 22.9 26 15.6V1.4L1.2 15.6v28.8l12.4-7.3z" clip-path="url(#d)"/><path style="fill:#64c0ff" d="M38.4 22.9 26 15.6l-12.4 7.3L26 30z" clip-path="url(#d)"/><path style="fill:none;stroke:#000;stroke-width:1.03299999;stroke-linecap:round;stroke-linejoin:round;stroke-miterlimit:10" d="M38.4 22.9 26 15.6l-12.4 7.3L26 30z" clip-path="url(#d)"/><path style="fill:#64c0ff" d="M13.6 37.1V22.9L26 30v14.4z" clip-path="url(#d)"/><path style="fill:none;stroke:#000;stroke-width:1.03299999;stroke-linecap:round;stroke-linejoin:round;stroke-miterlimit:10" d="M13.6 37.1V22.9L26 30v14.4z" clip-path="url(#d)"/><g clip-path="url(#d)"><defs><path d="M-5-1h62v62H-5z" id="e"/></defs><clipPath id="f"><use height="100%" width="100%" style="overflow:visible" overflow="visible" xlink:href="#e"/></clipPath><g style="opacity:.3" clip-path="url(#f)"><defs><path d="M26 1.4h24.8v43H26z" id="g"/></defs><clipPath id="h"><use height="100%" width="100%" style="overflow:visible" overflow="visible" xlink:href="#g"/></clipPath><path style="fill:#010202" d="M26 15.6V1.4l24.8 14.2v28.8l-12.4-7.3V22.9z" clip-path="url(#h)"/></g><g style="opacity:.6" clip-path="url(#f)"><defs><path d="M26 22.9h12.4v21.5H26z" id="i"/></defs><clipPath id="j"><use height="100%" width="100%" style="overflow:visible" overflow="visible" xlink:href="#i"/></clipPath><path style="fill:#010202" d="M38.4 22.9 26 30v14.4l12.4-7.3z" clip-path="url(#j)"/></g><g style="opacity:.6" clip-path="url(#f)"><defs><path d="M1.2 1.4H26v43H1.2z" id="k"/></defs><clipPath id="l"><use height="100%" width="100%" style="overflow:visible" overflow="visible" xlink:href="#k"/></clipPath><path style="fill:#010202" d="M13.6 22.9 26 15.6V1.4L1.2 15.6v28.8l12.4-7.3z" clip-path="url(#l)"/></g><g style="opacity:.3" clip-path="url(#f)"><defs><path d="M13.6 22.9H26v21.5H13.6z" id="m"/></defs><clipPath id="n"><use height="100%" width="100%" style="overflow:visible" overflow="visible" xlink:href="#m"/></clipPath><path style="fill:#010202" d="M13.6 37.1V22.9L26 30v14.4z" clip-path="url(#n)"/></g></g><path style="fill:none;stroke:#000;stroke-width:1.03299999;stroke-linecap:round;stroke-linejoin:round;stroke-miterlimit:10" d="m38.4 37.1 12.4 7.3L26 58.6 1.2 44.4l12.4-7.3L26 44.4l12.4-7.3L26 44.4l-12.4-7.3" clip-path="url(#d)"/><path style="fill:none;stroke:#000;stroke-width:1.03299999;stroke-linecap:round;stroke-linejoin:round;stroke-miterlimit:10" d="M26 15.6V1.4l24.8 14.2v28.8l-12.4-7.3V22.9z" clip-path="url(#d)"/><path style="fill:none;stroke:#000;stroke-width:1.03299999;stroke-linecap:round;stroke-linejoin:round;stroke-miterlimit:10" d="M38.4 22.9 26 30v14.4l12.4-7.3zm-24.8 0L26 15.6V1.4L1.2 15.6v28.8l12.4-7.3z" clip-path="url(#d)"/><path style="fill:none;stroke:#000;stroke-width:1.03299999;stroke-linecap:round;stroke-linejoin:round;stroke-miterlimit:10" d="M38.4 22.9 26 15.6l-12.4 7.3L26 30z" clip-path="url(#d)"/><path style="fill:none;stroke:#000;stroke-width:1.03299999;stroke-linecap:round;stroke-linejoin:round;stroke-miterlimit:10" d="M13.6 37.1V22.9L26 30v14.4z" clip-path="url(#d)"/></g></svg>