<?xml version="1.0" encoding="UTF-8" standalone="no"?>
<!-- Created with Inkscape (http://www.inkscape.org/) -->

<svg
   width="210mm"
   height="297mm"
   viewBox="0 0 210 297"
   version="1.1"
   id="svg5"
   inkscape:version="1.1 (c68e22c387, 2021-05-23)"
   sodipodi:docname="drawing.svg"
   xmlns:inkscape="http://www.inkscape.org/namespaces/inkscape"
   xmlns:sodipodi="http://sodipodi.sourceforge.net/DTD/sodipodi-0.dtd"
   xmlns="http://www.w3.org/2000/svg"
   xmlns:svg="http://www.w3.org/2000/svg">
  <sodipodi:namedview
     id="namedview7"
     pagecolor="#505050"
     bordercolor="#eeeeee"
     borderopacity="1"
     inkscape:pageshadow="0"
     inkscape:pageopacity="0"
     inkscape:pagecheckerboard="0"
     inkscape:document-units="mm"
     showgrid="false"
     inkscape:zoom="1.8973437"
     inkscape:cx="440.61601"
     inkscape:cy="555.77701"
     inkscape:window-width="1567"
     inkscape:window-height="1003"
     inkscape:window-x="1785"
     inkscape:window-y="224"
     inkscape:window-maximized="0"
     inkscape:current-layer="g329" />
  <defs
     id="defs2">
    <g
       id="g9" />
    <clipPath
       id="59d0dcea62">
      <path
         d="M 0.523438 0 L 206.976562 0 L 206.976562 158.007812 L 0.523438 158.007812 Z M 0.523438 0 "
         clip-rule="nonzero"
         id="path11" />
    </clipPath>
  </defs>
  <g
     inkscape:label="Layer 1"
     inkscape:groupmode="layer"
     id="layer1">
    <g
       id="g329"
       transform="matrix(0.35277778,0,0,0.35277778,76.204087,128.32041)">
      <g
         fill="#053250"
         fill-opacity="1"
         id="g26">
        <g
           transform="translate(12.24951,34.717234)"
           id="g24">
          <g
             id="g22">
            <path
               d="m 1.328125,-23.046875 h 10.59375 c 0.3125,0 0.46875,0.152344 0.46875,0.453125 v 2.890625 c 0,0.304687 -0.15625,0.453125 -0.46875,0.453125 H 8.59375 V -0.46875 C 8.59375,-0.15625 8.4375,0 8.125,0 h -3 C 4.820312,0 4.671875,-0.15625 4.671875,-0.46875 V -19.25 h -3.34375 c -0.3125,0 -0.46875,-0.148438 -0.46875,-0.453125 v -2.890625 c 0,-0.300781 0.15625,-0.453125 0.46875,-0.453125 z m 0,0"
               id="path20" />
          </g>
        </g>
      </g>
      <g
         fill="#053250"
         fill-opacity="1"
         id="g34">
        <g
           transform="translate(25.502564,34.717234)"
           id="g32">
          <g
             id="g30">
            <path
               d="m 12.9375,-19.703125 v 2.875 c 0,0.324219 -0.15625,0.484375 -0.46875,0.484375 H 5.359375 v 4.4375 h 5.421875 c 0.300781,0 0.453125,0.167969 0.453125,0.5 v 2.84375 c 0,0.335938 -0.152344,0.5 -0.453125,0.5 H 5.359375 v 4.265625 h 7.109375 c 0.3125,0 0.46875,0.152344 0.46875,0.453125 v 2.875 C 12.9375,-0.15625 12.78125,0 12.46875,0 H 1.875 C 1.582031,0 1.4375,-0.15625 1.4375,-0.46875 v -19.234375 c 0,-0.3125 0.144531,-0.46875 0.4375,-0.46875 h 10.59375 c 0.3125,0 0.46875,0.15625 0.46875,0.46875 z m 0,0"
               id="path28" />
          </g>
        </g>
      </g>
      <g
         fill="#053250"
         fill-opacity="1"
         id="g42">
        <g
           transform="translate(39.879239,34.717234)"
           id="g40">
          <g
             id="g38">
            <path
               d="m 5.359375,-3.796875 v -15.90625 c 0,-0.3125 -0.15625,-0.46875 -0.46875,-0.46875 H 1.90625 c -0.3125,0 -0.46875,0.15625 -0.46875,0.46875 V -0.46875 C 1.4375,-0.15625 1.59375,0 1.90625,0 h 9.15625 c 0.3125,0 0.46875,-0.15625 0.46875,-0.46875 v -2.875 c 0,-0.300781 -0.15625,-0.453125 -0.46875,-0.453125 z m 0,0"
               id="path36" />
          </g>
        </g>
      </g>
      <g
         fill="#053250"
         fill-opacity="1"
         id="g50">
        <g
           transform="translate(52.844179,34.717234)"
           id="g48">
          <g
             id="g46">
            <path
               d="m 5.359375,-3.796875 v -15.90625 c 0,-0.3125 -0.15625,-0.46875 -0.46875,-0.46875 H 1.90625 c -0.3125,0 -0.46875,0.15625 -0.46875,0.46875 V -0.46875 C 1.4375,-0.15625 1.59375,0 1.90625,0 h 9.15625 c 0.3125,0 0.46875,-0.15625 0.46875,-0.46875 v -2.875 c 0,-0.300781 -0.15625,-0.453125 -0.46875,-0.453125 z m 0,0"
               id="path44" />
          </g>
        </g>
      </g>
      <g
         fill="#053250"
         fill-opacity="1"
         id="g58">
        <g
           transform="translate(65.80912,34.717234)"
           id="g56">
          <g
             id="g54">
            <path
               d="m 13.484375,-23.046875 h 3.796875 c 0.382812,0 0.578125,0.195313 0.578125,0.578125 V -0.578125 C 17.859375,-0.191406 17.664062,0 17.28125,0 H 14.609375 C 14.222656,0 14.03125,-0.191406 14.03125,-0.578125 v -12.96875 h -0.203125 l -2.84375,13.03125 C 10.898438,-0.171875 10.6875,0 10.34375,0 H 8.9375 C 8.601562,0 8.390625,-0.171875 8.296875,-0.515625 l -2.84375,-13.03125 H 5.25 v 12.96875 C 5.25,-0.191406 5.054688,0 4.671875,0 H 2.015625 C 1.628906,0 1.4375,-0.191406 1.4375,-0.578125 V -22.46875 c 0,-0.382812 0.191406,-0.578125 0.578125,-0.578125 H 5.8125 c 0.351562,0 0.566406,0.171875 0.640625,0.515625 l 3.203125,14.34375 3.1875,-14.34375 c 0.101562,-0.34375 0.316406,-0.515625 0.640625,-0.515625 z m 0,0"
               id="path52" />
          </g>
        </g>
      </g>
      <g
         fill="#053250"
         fill-opacity="1"
         id="g66">
        <g
           transform="translate(85.11247,34.717234)"
           id="g64">
          <g
             id="g62">
            <path
               d="m 12.9375,-19.703125 v 2.875 c 0,0.324219 -0.15625,0.484375 -0.46875,0.484375 H 5.359375 v 4.4375 h 5.421875 c 0.300781,0 0.453125,0.167969 0.453125,0.5 v 2.84375 c 0,0.335938 -0.152344,0.5 -0.453125,0.5 H 5.359375 v 4.265625 h 7.109375 c 0.3125,0 0.46875,0.152344 0.46875,0.453125 v 2.875 C 12.9375,-0.15625 12.78125,0 12.46875,0 H 1.875 C 1.582031,0 1.4375,-0.15625 1.4375,-0.46875 v -19.234375 c 0,-0.3125 0.144531,-0.46875 0.4375,-0.46875 h 10.59375 c 0.3125,0 0.46875,0.15625 0.46875,0.46875 z m 0,0"
               id="path60" />
          </g>
        </g>
      </g>
      <g
         fill="#053250"
         fill-opacity="1"
         id="g74">
        <g
           transform="translate(99.489144,34.717234)"
           id="g72">
          <g
             id="g70">
            <path
               d="M 17.203125,-23.046875 H 19.9375 c 0.40625,0 0.585938,0.203125 0.546875,0.609375 L 18,-0.546875 C 17.988281,-0.179688 17.789062,0 17.40625,0 H 14.578125 C 14.253906,0 14.039062,-0.171875 13.9375,-0.515625 l -2.984375,-13.03125 -3.03125,13.0625 C 7.828125,-0.160156 7.617188,0 7.296875,0 H 4.40625 C 4.019531,0 3.816406,-0.179688 3.796875,-0.546875 L 1.4375,-22.4375 c -0.03125,-0.40625 0.148438,-0.609375 0.546875,-0.609375 H 4.71875 c 0.363281,0 0.566406,0.183594 0.609375,0.546875 l 1.125,13.484375 H 6.59375 L 9.453125,-22.53125 c 0.09375,-0.34375 0.300781,-0.515625 0.625,-0.515625 H 11.8125 c 0.34375,0 0.554688,0.171875 0.640625,0.515625 l 2.8125,13.515625 h 0.15625 L 16.59375,-22.5 c 0.03906,-0.363281 0.242188,-0.546875 0.609375,-0.546875 z m 0,0"
               id="path68" />
          </g>
        </g>
      </g>
      <g
         fill="#053250"
         fill-opacity="1"
         id="g82">
        <g
           transform="translate(121.41429,34.717234)"
           id="g80">
          <g
             id="g78">
            <path
               d="m 9.046875,-11.921875 v -7.78125 c 0,-0.3125 0.15625,-0.46875 0.46875,-0.46875 h 2.953125 c 0.332031,0 0.5,0.15625 0.5,0.46875 V -0.46875 c 0,0.3125 -0.167969,0.46875 -0.5,0.46875 H 9.515625 c -0.3125,0 -0.46875,-0.15625 -0.46875,-0.46875 V -8.125 h -3.6875 v 7.65625 C 5.359375,-0.15625 5.203125,0 4.890625,0 H 1.9375 c -0.335938,0 -0.5,-0.15625 -0.5,-0.46875 v -19.234375 c 0,-0.3125 0.164062,-0.46875 0.5,-0.46875 h 2.953125 c 0.3125,0 0.46875,0.15625 0.46875,0.46875 v 7.78125 z m 0,0"
               id="path76" />
          </g>
        </g>
      </g>
      <g
         fill="#053250"
         fill-opacity="1"
         id="g90">
        <g
           transform="translate(135.81978,34.717234)"
           id="g88">
          <g
             id="g86">
            <path
               d="m 12.9375,-19.703125 v 2.875 c 0,0.324219 -0.15625,0.484375 -0.46875,0.484375 H 5.359375 v 4.4375 h 5.421875 c 0.300781,0 0.453125,0.167969 0.453125,0.5 v 2.84375 c 0,0.335938 -0.152344,0.5 -0.453125,0.5 H 5.359375 v 4.265625 h 7.109375 c 0.3125,0 0.46875,0.152344 0.46875,0.453125 v 2.875 C 12.9375,-0.15625 12.78125,0 12.46875,0 H 1.875 C 1.582031,0 1.4375,-0.15625 1.4375,-0.46875 v -19.234375 c 0,-0.3125 0.144531,-0.46875 0.4375,-0.46875 h 10.59375 c 0.3125,0 0.46875,0.15625 0.46875,0.46875 z m 0,0"
               id="path84" />
          </g>
        </g>
      </g>
      <g
         fill="#053250"
         fill-opacity="1"
         id="g98">
        <g
           transform="translate(150.19646,34.717234)"
           id="g96">
          <g
             id="g94">
            <path
               d="m 12.96875,-16.015625 v 5.78125 c 0,1.679687 -0.539062,2.851563 -1.609375,3.515625 l 1.484375,6.203125 C 12.945312,-0.171875 12.816406,0 12.453125,0 H 9.625 C 9.351562,0 9.191406,-0.132812 9.140625,-0.40625 L 7.75,-6.078125 H 5.1875 V -0.46875 C 5.1875,-0.15625 5.03125,0 4.71875,0 H 1.90625 C 1.59375,0 1.4375,-0.15625 1.4375,-0.46875 v -19.234375 c 0,-0.3125 0.15625,-0.46875 0.46875,-0.46875 H 8.8125 c 1.363281,0 2.394531,0.355469 3.09375,1.0625 0.707031,0.699219 1.0625,1.730469 1.0625,3.09375 z m -7.78125,6.21875 h 2.875 c 0.769531,0 1.15625,-0.382813 1.15625,-1.15625 v -4.34375 c 0,-0.769531 -0.386719,-1.15625 -1.15625,-1.15625 h -2.875 z m 0,0"
               id="path92" />
          </g>
        </g>
      </g>
      <g
         fill="#053250"
         fill-opacity="1"
         id="g106">
        <g
           transform="translate(164.60195,34.717234)"
           id="g104">
          <g
             id="g102">
            <path
               d="m 12.9375,-19.703125 v 2.875 c 0,0.324219 -0.15625,0.484375 -0.46875,0.484375 H 5.359375 v 4.4375 h 5.421875 c 0.300781,0 0.453125,0.167969 0.453125,0.5 v 2.84375 c 0,0.335938 -0.152344,0.5 -0.453125,0.5 H 5.359375 v 4.265625 h 7.109375 c 0.3125,0 0.46875,0.152344 0.46875,0.453125 v 2.875 C 12.9375,-0.15625 12.78125,0 12.46875,0 H 1.875 C 1.582031,0 1.4375,-0.15625 1.4375,-0.46875 v -19.234375 c 0,-0.3125 0.144531,-0.46875 0.4375,-0.46875 h 10.59375 c 0.3125,0 0.46875,0.15625 0.46875,0.46875 z m 0,0"
               id="path100" />
          </g>
        </g>
      </g>
      <g
         fill="#053250"
         fill-opacity="1"
         id="g114">
        <g
           transform="translate(12.24951,83.119755)"
           id="g112">
          <g
             id="g110">
            <path
               d="m 3.609375,-43.71875 h 5.6875 c 0.582031,0 0.875,0.292969 0.875,0.875 V -0.875 c 0,0.585938 -0.292969,0.875 -0.875,0.875 h -5.6875 c -0.585937,0 -0.875,-0.289062 -0.875,-0.875 v -41.96875 c 0,-0.582031 0.289063,-0.875 0.875,-0.875 z m 0,0"
               id="path108" />
          </g>
        </g>
      </g>
      <g
         fill="#053250"
         fill-opacity="1"
         id="g122">
        <g
           transform="translate(25.147455,83.119755)"
           id="g120">
          <g
             id="g118">
            <path
               d="M 22.625,-38.265625 H 2.515625 c -0.585937,0 -0.875,0.292969 -0.875,0.875 v 5.46875 c 0,0.585937 0.289063,0.875 0.875,0.875 h 6.34375 V -0.875 c 0,0.585938 0.289063,0.875 0.875,0.875 h 5.671875 c 0.582031,0 0.875,-0.289062 0.875,-0.875 V -31.046875 H 22.625 c 0.582031,0 0.875,-0.289063 0.875,-0.875 v -5.46875 c 0,-0.582031 -0.292969,-0.875 -0.875,-0.875 z m 0,0"
               id="path116" />
          </g>
        </g>
      </g>
      <g
         fill="#053250"
         fill-opacity="1"
         id="g130">
        <g
           transform="translate(50.287513,83.119755)"
           id="g128">
          <g
             id="g126">
            <path
               d="m 17.15625,-25.46875 v -17.375 c 0,-0.582031 0.289062,-0.875 0.875,-0.875 h 5.640625 c 0.613281,0 0.921875,0.292969 0.921875,0.875 V -0.875 C 24.59375,-0.289062 24.285156,0 23.671875,0 H 18.03125 c -0.585938,0 -0.875,-0.289062 -0.875,-0.875 V -18.25 h -6.984375 v 17.375 c 0,0.585938 -0.292969,0.875 -0.875,0.875 H 3.65625 C 3.039062,0 2.734375,-0.289062 2.734375,-0.875 v -41.96875 c 0,-0.582031 0.304687,-0.875 0.921875,-0.875 h 5.640625 c 0.582031,0 0.875,0.292969 0.875,0.875 v 17.375 z m 0,0"
               id="path124" />
          </g>
        </g>
      </g>
      <g
         fill="#053250"
         fill-opacity="1"
         id="g138">
        <g
           transform="translate(77.613663,83.119755)"
           id="g136">
          <g
             id="g134">
            <path
               d="M 18.46875,-38.265625 H 23.5 c 0.289062,0 0.546875,0.109375 0.765625,0.328125 0.21875,0.21875 0.328125,0.476562 0.328125,0.765625 V -7.875 c 0,2.554688 -0.667969,4.507812 -2,5.859375 C 21.269531,-0.671875 19.3125,0 16.71875,0 H 10.609375 C 8.054688,0 6.101562,-0.671875 4.75,-2.015625 3.40625,-3.367188 2.734375,-5.320312 2.734375,-7.875 v -29.296875 c 0,-0.289063 0.109375,-0.546875 0.328125,-0.765625 0.21875,-0.21875 0.472656,-0.328125 0.765625,-0.328125 h 5.25 c 0.289063,0 0.546875,0.109375 0.765625,0.328125 0.21875,0.21875 0.328125,0.476562 0.328125,0.765625 V -9.40625 c 0,1.460938 0.726563,2.1875 2.1875,2.1875 H 15.1875 c 1.457031,0 2.1875,-0.726562 2.1875,-2.1875 v -27.765625 c 0,-0.289063 0.109375,-0.546875 0.328125,-0.765625 0.21875,-0.21875 0.472656,-0.328125 0.765625,-0.328125 z m 0,0"
               id="path132" />
          </g>
        </g>
      </g>
      <g
         fill="#053250"
         fill-opacity="1"
         id="g146">
        <g
           transform="translate(104.93981,83.119755)"
           id="g144">
          <g
             id="g142">
            <path
               d="m 24.59375,-30.390625 v 10.984375 c 0,3.179688 -1.023438,5.402344 -3.0625,6.671875 l 2.84375,11.75 C 24.5625,-0.328125 24.304688,0 23.609375,0 H 18.25 c -0.511719,0 -0.820312,-0.253906 -0.921875,-0.765625 l -2.625,-10.765625 H 9.84375 V -0.875 C 9.84375,-0.289062 9.550781,0 8.96875,0 H 3.609375 c -0.585937,0 -0.875,-0.289062 -0.875,-0.875 v -36.515625 c 0,-0.582031 0.289063,-0.875 0.875,-0.875 H 16.71875 c 2.59375,0 4.550781,0.667969 5.875,2 1.332031,1.335937 2,3.292969 2,5.875 z m -14.75,11.8125 h 5.453125 c 1.457031,0 2.1875,-0.726563 2.1875,-2.1875 v -8.25 c 0,-1.457031 -0.730469,-2.1875 -2.1875,-2.1875 H 9.84375 Z m 0,0"
               id="path140" />
          </g>
        </g>
      </g>
      <g
         fill="#053250"
         fill-opacity="1"
         id="g154">
        <g
           transform="translate(132.26596,83.119755)"
           id="g152">
          <g
             id="g150">
            <path
               d="M 22.625,-38.265625 H 2.515625 c -0.585937,0 -0.875,0.292969 -0.875,0.875 v 5.46875 c 0,0.585937 0.289063,0.875 0.875,0.875 h 6.34375 V -0.875 c 0,0.585938 0.289063,0.875 0.875,0.875 h 5.671875 c 0.582031,0 0.875,-0.289062 0.875,-0.875 V -31.046875 H 22.625 c 0.582031,0 0.875,-0.289063 0.875,-0.875 v -5.46875 c 0,-0.582031 -0.292969,-0.875 -0.875,-0.875 z m 0,0"
               id="path148" />
          </g>
        </g>
      </g>
      <g
         fill="#053250"
         fill-opacity="1"
         id="g162">
        <g
           transform="translate(157.40602,83.119755)"
           id="g160">
          <g
             id="g158">
            <path
               d="m 10.609375,-38.265625 h 6.109375 c 2.59375,0 4.550781,0.667969 5.875,2 1.332031,1.335937 2,3.292969 2,5.875 v 3.609375 c 0,0.585938 -0.292969,0.875 -0.875,0.875 h -5.515625 c -0.585937,0 -0.875,-0.289062 -0.875,-0.875 v -2.296875 c 0,-1.457031 -0.730469,-2.1875 -2.1875,-2.1875 h -3 c -1.460937,0 -2.1875,0.730469 -2.1875,2.1875 v 4.640625 l 13.21875,4.265625 c 0.945313,0.335937 1.421875,1.011719 1.421875,2.03125 V -7.875 c 0,2.554688 -0.667969,4.507812 -2,5.859375 C 21.269531,-0.671875 19.3125,0 16.71875,0 H 10.609375 C 8.054688,0 6.101562,-0.671875 4.75,-2.015625 3.40625,-3.367188 2.734375,-5.320312 2.734375,-7.875 v -3.546875 c 0,-0.582031 0.289063,-0.875 0.875,-0.875 H 9.125 c 0.582031,0 0.875,0.292969 0.875,0.875 V -9.125 c 0,1.460938 0.726562,2.1875 2.1875,2.1875 h 2.953125 c 1.457031,0 2.1875,-0.726562 2.1875,-2.1875 v -5.515625 l -13.125,-4.265625 c -0.980469,-0.332031 -1.46875,-1.007812 -1.46875,-2.03125 v -9.453125 c 0,-2.582031 0.671875,-4.539063 2.015625,-5.875 1.351562,-1.332031 3.304688,-2 5.859375,-2 z m 0,0"
               id="path156" />
          </g>
        </g>
      </g>
      <g
         fill="#053250"
         fill-opacity="1"
         id="g170">
        <g
           transform="translate(12.24951,134.54632)"
           id="g168">
          <g
             id="g166">
            <path
               d="m 19.515625,-43.71875 h 5.6875 c 0.582031,0 0.875,0.292969 0.875,0.875 V -0.875 c 0,0.585938 -0.292969,0.875 -0.875,0.875 H 19.78125 C 19.269531,0 18.941406,-0.234375 18.796875,-0.703125 L 10.4375,-24.046875 H 10.171875 V -0.875 c 0,0.585938 -0.292969,0.875 -0.875,0.875 h -5.6875 c -0.585937,0 -0.875,-0.289062 -0.875,-0.875 v -41.96875 c 0,-0.582031 0.289063,-0.875 0.875,-0.875 h 5.40625 c 0.507813,0 0.835937,0.234375 0.984375,0.703125 l 8.3125,23.234375 h 0.328125 v -23.0625 c 0,-0.582031 0.289063,-0.875 0.875,-0.875 z m 0,0"
               id="path164" />
          </g>
        </g>
      </g>
      <g
         fill="#053250"
         fill-opacity="1"
         id="g178">
        <g
           transform="translate(41.051261,134.54632)"
           id="g176">
          <g
             id="g174">
            <path
               d="m 2.734375,-7.875 v -22.515625 c 0,-2.582031 0.671875,-4.539063 2.015625,-5.875 1.351562,-1.332031 3.304688,-2 5.859375,-2 h 6.109375 c 2.59375,0 4.550781,0.667969 5.875,2 1.332031,1.335937 2,3.292969 2,5.875 V -7.875 c 0,2.554688 -0.667969,4.507812 -2,5.859375 C 21.269531,-0.671875 19.3125,0 16.71875,0 H 10.609375 C 8.054688,0 6.101562,-0.671875 4.75,-2.015625 3.40625,-3.367188 2.734375,-5.320312 2.734375,-7.875 Z m 9.296875,0.828125 h 3.484375 c 1.457031,0 2.1875,-0.726563 2.1875,-2.1875 v -19.78125 c 0,-1.457031 -0.730469,-2.1875 -2.1875,-2.1875 H 12.03125 c -1.460938,0 -2.1875,0.730469 -2.1875,2.1875 v 19.78125 c 0,1.460937 0.726562,2.1875 2.1875,2.1875 z m 0,0"
               id="path172" />
          </g>
        </g>
      </g>
      <g
         fill="#053250"
         fill-opacity="1"
         id="g186">
        <g
           transform="translate(68.37741,134.54632)"
           id="g184">
          <g
             id="g182">
            <path
               d="M 33.671875,-38.265625 H 38.8125 c 0.800781,0 1.144531,0.386719 1.03125,1.15625 l -5.25,36.125 C 34.488281,-0.328125 34.085938,0 33.390625,0 h -5.90625 c -0.617187,0 -1.011719,-0.328125 -1.1875,-0.984375 l -5.03125,-22.40625 -5.09375,22.40625 C 16.023438,-0.328125 15.625,0 14.96875,0 h -6 C 8.269531,0 7.867188,-0.34375 7.765625,-1.03125 l -5.03125,-36.078125 c -0.117187,-0.769531 0.226563,-1.15625 1.03125,-1.15625 H 8.90625 c 0.65625,0 1.039062,0.351563 1.15625,1.046875 l 2.671875,22.84375 h 0.28125 l 5.34375,-22.953125 c 0.1875,-0.625 0.585937,-0.9375 1.203125,-0.9375 h 3.34375 c 0.613281,0 1.015625,0.3125 1.203125,0.9375 l 5.34375,22.953125 h 0.28125 l 2.78125,-22.84375 c 0.113281,-0.695312 0.5,-1.046875 1.15625,-1.046875 z m 0,0"
               id="path180" />
          </g>
        </g>
      </g>
      <g
         fill="#053250"
         fill-opacity="1"
         id="g194">
        <g
           transform="translate(109.35649,134.85188)"
           id="g192">
          <g
             id="g190">
            <path
               d="m 1.546875,-0.609375 v -2.84375 C 1.546875,-3.859375 1.75,-4.0625 2.15625,-4.0625 h 2.796875 c 0.414063,0 0.625,0.203125 0.625,0.609375 v 2.84375 C 5.578125,-0.203125 5.367188,0 4.953125,0 H 2.15625 C 1.75,0 1.546875,-0.203125 1.546875,-0.609375 Z m 0,0"
               id="path188" />
          </g>
        </g>
      </g>
      <g
         fill="#053250"
         fill-opacity="1"
         id="g202">
        <g
           transform="translate(116.47185,134.85188)"
           id="g200">
          <g
             id="g198">
            <path
               d="m 13.890625,-17.125 v 3.328125 c 0,0.335937 -0.167969,0.5 -0.5,0.5 H 10.5 c -0.324219,0 -0.484375,-0.164063 -0.484375,-0.5 v -2.53125 c 0,-0.8125 -0.414063,-1.21875 -1.234375,-1.21875 H 6.8125 c -0.824219,0 -1.234375,0.40625 -1.234375,1.21875 v 11.1875 c 0,0.824219 0.410156,1.234375 1.234375,1.234375 h 1.96875 c 0.820312,0 1.234375,-0.410156 1.234375,-1.234375 v -2.625 C 10.015625,-8.085938 10.175781,-8.25 10.5,-8.25 h 2.890625 c 0.332031,0 0.5,0.164062 0.5,0.484375 V -4.4375 C 13.890625,-3 13.507812,-1.898438 12.75,-1.140625 11.988281,-0.378906 10.890625,0 9.453125,0 H 6 C 4.5625,0 3.457031,-0.378906 2.6875,-1.140625 1.925781,-1.898438 1.546875,-3 1.546875,-4.4375 V -17.125 c 0,-1.457031 0.378906,-2.5625 1.140625,-3.3125 0.769531,-0.75 1.875,-1.125 3.3125,-1.125 h 3.453125 c 1.4375,0 2.535156,0.375 3.296875,1.125 0.757812,0.75 1.140625,1.855469 1.140625,3.3125 z m 0,0"
               id="path196" />
          </g>
        </g>
      </g>
      <g
         fill="#053250"
         fill-opacity="1"
         id="g210">
        <g
           transform="translate(131.90386,134.85188)"
           id="g208">
          <g
             id="g206">
            <path
               d="M 1.546875,-4.4375 V -17.125 c 0,-1.457031 0.375,-2.5625 1.125,-3.3125 0.757813,-0.75 1.859375,-1.125 3.296875,-1.125 h 3.453125 c 1.457031,0 2.5625,0.375 3.3125,1.125 0.75,0.75 1.125,1.855469 1.125,3.3125 v 12.6875 c 0,1.4375 -0.375,2.539062 -1.125,3.296875 C 11.984375,-0.378906 10.878906,0 9.421875,0 H 5.96875 C 4.53125,0 3.429688,-0.378906 2.671875,-1.140625 1.921875,-1.898438 1.546875,-3 1.546875,-4.4375 Z M 6.78125,-3.96875 H 8.75 c 0.820312,0 1.234375,-0.410156 1.234375,-1.234375 v -11.15625 c 0,-0.8125 -0.414063,-1.21875 -1.234375,-1.21875 H 6.78125 c -0.824219,0 -1.234375,0.40625 -1.234375,1.21875 v 11.15625 c 0,0.824219 0.410156,1.234375 1.234375,1.234375 z m 0,0"
               id="path204" />
          </g>
        </g>
      </g>
      <g
         fill="#053250"
         fill-opacity="1"
         id="g218">
        <g
           transform="translate(147.30507,134.85188)"
           id="g216">
          <g
             id="g214">
            <path
               d="m 14.40625,-21.5625 h 4.078125 c 0.40625,0 0.609375,0.210938 0.609375,0.625 V -0.609375 C 19.09375,-0.203125 18.890625,0 18.484375,0 h -2.875 C 15.203125,0 15,-0.203125 15,-0.609375 V -12.71875 h -0.21875 l -2.890625,12.1875 C 11.785156,-0.175781 11.554688,0 11.203125,0 h -1.8125 C 9.046875,0 8.820312,-0.175781 8.71875,-0.53125 L 5.828125,-12.71875 H 5.609375 V -0.609375 C 5.609375,-0.203125 5.398438,0 4.984375,0 H 2.15625 C 1.75,0 1.546875,-0.203125 1.546875,-0.609375 V -20.9375 c 0,-0.414062 0.203125,-0.625 0.609375,-0.625 h 4.0625 c 0.351562,0 0.582031,0.179688 0.6875,0.53125 l 3.40625,13.734375 3.421875,-13.734375 c 0.101563,-0.351562 0.328125,-0.53125 0.671875,-0.53125 z m 0,0"
               id="path212" />
          </g>
        </g>
      </g>
    </g>
  </g>
</svg>
