<svg xmlns="http://www.w3.org/2000/svg" xmlns:xlink="http://www.w3.org/1999/xlink" width="277" zoomAndPan="magnify" viewBox="0 0 207.75 159.000002" height="212" preserveAspectRatio="xMidYMid meet" version="1.0"><defs><g/><clipPath id="59d0dcea62"><path d="M 0.523438 0 L 206.976562 0 L 206.976562 158.007812 L 0.523438 158.007812 Z M 0.523438 0 " clip-rule="nonzero"/></clipPath></defs><g clip-path="url(#59d0dcea62)"><path fill="#ffffff" d="M 0.523438 0 L 206.976562 0 L 206.976562 158.007812 L 0.523438 158.007812 Z M 0.523438 0 " fill-opacity="1" fill-rule="nonzero"/></g><g fill="#053250" fill-opacity="1"><g transform="translate(12.24951, 34.717234)"><g><path d="M 1.328125 -23.046875 L 11.921875 -23.046875 C 12.234375 -23.046875 12.390625 -22.894531 12.390625 -22.59375 L 12.390625 -19.703125 C 12.390625 -19.398438 12.234375 -19.25 11.921875 -19.25 L 8.59375 -19.25 L 8.59375 -0.46875 C 8.59375 -0.15625 8.4375 0 8.125 0 L 5.125 0 C 4.820312 0 4.671875 -0.15625 4.671875 -0.46875 L 4.671875 -19.25 L 1.328125 -19.25 C 1.015625 -19.25 0.859375 -19.398438 0.859375 -19.703125 L 0.859375 -22.59375 C 0.859375 -22.894531 1.015625 -23.046875 1.328125 -23.046875 Z M 1.328125 -23.046875 "/></g></g></g><g fill="#053250" fill-opacity="1"><g transform="translate(25.502564, 34.717234)"><g><path d="M 12.9375 -19.703125 L 12.9375 -16.828125 C 12.9375 -16.503906 12.78125 -16.34375 12.46875 -16.34375 L 5.359375 -16.34375 L 5.359375 -11.90625 L 10.78125 -11.90625 C 11.082031 -11.90625 11.234375 -11.738281 11.234375 -11.40625 L 11.234375 -8.5625 C 11.234375 -8.226562 11.082031 -8.0625 10.78125 -8.0625 L 5.359375 -8.0625 L 5.359375 -3.796875 L 12.46875 -3.796875 C 12.78125 -3.796875 12.9375 -3.644531 12.9375 -3.34375 L 12.9375 -0.46875 C 12.9375 -0.15625 12.78125 0 12.46875 0 L 1.875 0 C 1.582031 0 1.4375 -0.15625 1.4375 -0.46875 L 1.4375 -19.703125 C 1.4375 -20.015625 1.582031 -20.171875 1.875 -20.171875 L 12.46875 -20.171875 C 12.78125 -20.171875 12.9375 -20.015625 12.9375 -19.703125 Z M 12.9375 -19.703125 "/></g></g></g><g fill="#053250" fill-opacity="1"><g transform="translate(39.879239, 34.717234)"><g><path d="M 5.359375 -3.796875 L 5.359375 -19.703125 C 5.359375 -20.015625 5.203125 -20.171875 4.890625 -20.171875 L 1.90625 -20.171875 C 1.59375 -20.171875 1.4375 -20.015625 1.4375 -19.703125 L 1.4375 -0.46875 C 1.4375 -0.15625 1.59375 0 1.90625 0 L 11.0625 0 C 11.375 0 11.53125 -0.15625 11.53125 -0.46875 L 11.53125 -3.34375 C 11.53125 -3.644531 11.375 -3.796875 11.0625 -3.796875 Z M 5.359375 -3.796875 "/></g></g></g><g fill="#053250" fill-opacity="1"><g transform="translate(52.844179, 34.717234)"><g><path d="M 5.359375 -3.796875 L 5.359375 -19.703125 C 5.359375 -20.015625 5.203125 -20.171875 4.890625 -20.171875 L 1.90625 -20.171875 C 1.59375 -20.171875 1.4375 -20.015625 1.4375 -19.703125 L 1.4375 -0.46875 C 1.4375 -0.15625 1.59375 0 1.90625 0 L 11.0625 0 C 11.375 0 11.53125 -0.15625 11.53125 -0.46875 L 11.53125 -3.34375 C 11.53125 -3.644531 11.375 -3.796875 11.0625 -3.796875 Z M 5.359375 -3.796875 "/></g></g></g><g fill="#053250" fill-opacity="1"><g transform="translate(65.80912, 34.717234)"><g><path d="M 13.484375 -23.046875 L 17.28125 -23.046875 C 17.664062 -23.046875 17.859375 -22.851562 17.859375 -22.46875 L 17.859375 -0.578125 C 17.859375 -0.191406 17.664062 0 17.28125 0 L 14.609375 0 C 14.222656 0 14.03125 -0.191406 14.03125 -0.578125 L 14.03125 -13.546875 L 13.828125 -13.546875 L 10.984375 -0.515625 C 10.898438 -0.171875 10.6875 0 10.34375 0 L 8.9375 0 C 8.601562 0 8.390625 -0.171875 8.296875 -0.515625 L 5.453125 -13.546875 L 5.25 -13.546875 L 5.25 -0.578125 C 5.25 -0.191406 5.054688 0 4.671875 0 L 2.015625 0 C 1.628906 0 1.4375 -0.191406 1.4375 -0.578125 L 1.4375 -22.46875 C 1.4375 -22.851562 1.628906 -23.046875 2.015625 -23.046875 L 5.8125 -23.046875 C 6.164062 -23.046875 6.378906 -22.875 6.453125 -22.53125 L 9.65625 -8.1875 L 12.84375 -22.53125 C 12.945312 -22.875 13.160156 -23.046875 13.484375 -23.046875 Z M 13.484375 -23.046875 "/></g></g></g><g fill="#053250" fill-opacity="1"><g transform="translate(85.11247, 34.717234)"><g><path d="M 12.9375 -19.703125 L 12.9375 -16.828125 C 12.9375 -16.503906 12.78125 -16.34375 12.46875 -16.34375 L 5.359375 -16.34375 L 5.359375 -11.90625 L 10.78125 -11.90625 C 11.082031 -11.90625 11.234375 -11.738281 11.234375 -11.40625 L 11.234375 -8.5625 C 11.234375 -8.226562 11.082031 -8.0625 10.78125 -8.0625 L 5.359375 -8.0625 L 5.359375 -3.796875 L 12.46875 -3.796875 C 12.78125 -3.796875 12.9375 -3.644531 12.9375 -3.34375 L 12.9375 -0.46875 C 12.9375 -0.15625 12.78125 0 12.46875 0 L 1.875 0 C 1.582031 0 1.4375 -0.15625 1.4375 -0.46875 L 1.4375 -19.703125 C 1.4375 -20.015625 1.582031 -20.171875 1.875 -20.171875 L 12.46875 -20.171875 C 12.78125 -20.171875 12.9375 -20.015625 12.9375 -19.703125 Z M 12.9375 -19.703125 "/></g></g></g><g fill="#053250" fill-opacity="1"><g transform="translate(99.489144, 34.717234)"><g><path d="M 17.203125 -23.046875 L 19.9375 -23.046875 C 20.34375 -23.046875 20.523438 -22.84375 20.484375 -22.4375 L 18 -0.546875 C 17.988281 -0.179688 17.789062 0 17.40625 0 L 14.578125 0 C 14.253906 0 14.039062 -0.171875 13.9375 -0.515625 L 10.953125 -13.546875 L 7.921875 -0.484375 C 7.828125 -0.160156 7.617188 0 7.296875 0 L 4.40625 0 C 4.019531 0 3.816406 -0.179688 3.796875 -0.546875 L 1.4375 -22.4375 C 1.40625 -22.84375 1.585938 -23.046875 1.984375 -23.046875 L 4.71875 -23.046875 C 5.082031 -23.046875 5.285156 -22.863281 5.328125 -22.5 L 6.453125 -9.015625 L 6.59375 -9.015625 L 9.453125 -22.53125 C 9.546875 -22.875 9.753906 -23.046875 10.078125 -23.046875 L 11.8125 -23.046875 C 12.15625 -23.046875 12.367188 -22.875 12.453125 -22.53125 L 15.265625 -9.015625 L 15.421875 -9.015625 L 16.59375 -22.5 C 16.632812 -22.863281 16.835938 -23.046875 17.203125 -23.046875 Z M 17.203125 -23.046875 "/></g></g></g><g fill="#053250" fill-opacity="1"><g transform="translate(121.414291, 34.717234)"><g><path d="M 9.046875 -11.921875 L 9.046875 -19.703125 C 9.046875 -20.015625 9.203125 -20.171875 9.515625 -20.171875 L 12.46875 -20.171875 C 12.800781 -20.171875 12.96875 -20.015625 12.96875 -19.703125 L 12.96875 -0.46875 C 12.96875 -0.15625 12.800781 0 12.46875 0 L 9.515625 0 C 9.203125 0 9.046875 -0.15625 9.046875 -0.46875 L 9.046875 -8.125 L 5.359375 -8.125 L 5.359375 -0.46875 C 5.359375 -0.15625 5.203125 0 4.890625 0 L 1.9375 0 C 1.601562 0 1.4375 -0.15625 1.4375 -0.46875 L 1.4375 -19.703125 C 1.4375 -20.015625 1.601562 -20.171875 1.9375 -20.171875 L 4.890625 -20.171875 C 5.203125 -20.171875 5.359375 -20.015625 5.359375 -19.703125 L 5.359375 -11.921875 Z M 9.046875 -11.921875 "/></g></g></g><g fill="#053250" fill-opacity="1"><g transform="translate(135.819784, 34.717234)"><g><path d="M 12.9375 -19.703125 L 12.9375 -16.828125 C 12.9375 -16.503906 12.78125 -16.34375 12.46875 -16.34375 L 5.359375 -16.34375 L 5.359375 -11.90625 L 10.78125 -11.90625 C 11.082031 -11.90625 11.234375 -11.738281 11.234375 -11.40625 L 11.234375 -8.5625 C 11.234375 -8.226562 11.082031 -8.0625 10.78125 -8.0625 L 5.359375 -8.0625 L 5.359375 -3.796875 L 12.46875 -3.796875 C 12.78125 -3.796875 12.9375 -3.644531 12.9375 -3.34375 L 12.9375 -0.46875 C 12.9375 -0.15625 12.78125 0 12.46875 0 L 1.875 0 C 1.582031 0 1.4375 -0.15625 1.4375 -0.46875 L 1.4375 -19.703125 C 1.4375 -20.015625 1.582031 -20.171875 1.875 -20.171875 L 12.46875 -20.171875 C 12.78125 -20.171875 12.9375 -20.015625 12.9375 -19.703125 Z M 12.9375 -19.703125 "/></g></g></g><g fill="#053250" fill-opacity="1"><g transform="translate(150.196459, 34.717234)"><g><path d="M 12.96875 -16.015625 L 12.96875 -10.234375 C 12.96875 -8.554688 12.429688 -7.382812 11.359375 -6.71875 L 12.84375 -0.515625 C 12.945312 -0.171875 12.816406 0 12.453125 0 L 9.625 0 C 9.351562 0 9.191406 -0.132812 9.140625 -0.40625 L 7.75 -6.078125 L 5.1875 -6.078125 L 5.1875 -0.46875 C 5.1875 -0.15625 5.03125 0 4.71875 0 L 1.90625 0 C 1.59375 0 1.4375 -0.15625 1.4375 -0.46875 L 1.4375 -19.703125 C 1.4375 -20.015625 1.59375 -20.171875 1.90625 -20.171875 L 8.8125 -20.171875 C 10.175781 -20.171875 11.207031 -19.816406 11.90625 -19.109375 C 12.613281 -18.410156 12.96875 -17.378906 12.96875 -16.015625 Z M 5.1875 -9.796875 L 8.0625 -9.796875 C 8.832031 -9.796875 9.21875 -10.179688 9.21875 -10.953125 L 9.21875 -15.296875 C 9.21875 -16.066406 8.832031 -16.453125 8.0625 -16.453125 L 5.1875 -16.453125 Z M 5.1875 -9.796875 "/></g></g></g><g fill="#053250" fill-opacity="1"><g transform="translate(164.601951, 34.717234)"><g><path d="M 12.9375 -19.703125 L 12.9375 -16.828125 C 12.9375 -16.503906 12.78125 -16.34375 12.46875 -16.34375 L 5.359375 -16.34375 L 5.359375 -11.90625 L 10.78125 -11.90625 C 11.082031 -11.90625 11.234375 -11.738281 11.234375 -11.40625 L 11.234375 -8.5625 C 11.234375 -8.226562 11.082031 -8.0625 10.78125 -8.0625 L 5.359375 -8.0625 L 5.359375 -3.796875 L 12.46875 -3.796875 C 12.78125 -3.796875 12.9375 -3.644531 12.9375 -3.34375 L 12.9375 -0.46875 C 12.9375 -0.15625 12.78125 0 12.46875 0 L 1.875 0 C 1.582031 0 1.4375 -0.15625 1.4375 -0.46875 L 1.4375 -19.703125 C 1.4375 -20.015625 1.582031 -20.171875 1.875 -20.171875 L 12.46875 -20.171875 C 12.78125 -20.171875 12.9375 -20.015625 12.9375 -19.703125 Z M 12.9375 -19.703125 "/></g></g></g><g fill="#053250" fill-opacity="1"><g transform="translate(12.24951, 83.119755)"><g><path d="M 3.609375 -43.71875 L 9.296875 -43.71875 C 9.878906 -43.71875 10.171875 -43.425781 10.171875 -42.84375 L 10.171875 -0.875 C 10.171875 -0.289062 9.878906 0 9.296875 0 L 3.609375 0 C 3.023438 0 2.734375 -0.289062 2.734375 -0.875 L 2.734375 -42.84375 C 2.734375 -43.425781 3.023438 -43.71875 3.609375 -43.71875 Z M 3.609375 -43.71875 "/></g></g></g><g fill="#053250" fill-opacity="1"><g transform="translate(25.147455, 83.119755)"><g><path d="M 22.625 -38.265625 L 2.515625 -38.265625 C 1.929688 -38.265625 1.640625 -37.972656 1.640625 -37.390625 L 1.640625 -31.921875 C 1.640625 -31.335938 1.929688 -31.046875 2.515625 -31.046875 L 8.859375 -31.046875 L 8.859375 -0.875 C 8.859375 -0.289062 9.148438 0 9.734375 0 L 15.40625 0 C 15.988281 0 16.28125 -0.289062 16.28125 -0.875 L 16.28125 -31.046875 L 22.625 -31.046875 C 23.207031 -31.046875 23.5 -31.335938 23.5 -31.921875 L 23.5 -37.390625 C 23.5 -37.972656 23.207031 -38.265625 22.625 -38.265625 Z M 22.625 -38.265625 "/></g></g></g><g fill="#053250" fill-opacity="1"><g transform="translate(50.287513, 83.119755)"><g><path d="M 17.15625 -25.46875 L 17.15625 -42.84375 C 17.15625 -43.425781 17.445312 -43.71875 18.03125 -43.71875 L 23.671875 -43.71875 C 24.285156 -43.71875 24.59375 -43.425781 24.59375 -42.84375 L 24.59375 -0.875 C 24.59375 -0.289062 24.285156 0 23.671875 0 L 18.03125 0 C 17.445312 0 17.15625 -0.289062 17.15625 -0.875 L 17.15625 -18.25 L 10.171875 -18.25 L 10.171875 -0.875 C 10.171875 -0.289062 9.878906 0 9.296875 0 L 3.65625 0 C 3.039062 0 2.734375 -0.289062 2.734375 -0.875 L 2.734375 -42.84375 C 2.734375 -43.425781 3.039062 -43.71875 3.65625 -43.71875 L 9.296875 -43.71875 C 9.878906 -43.71875 10.171875 -43.425781 10.171875 -42.84375 L 10.171875 -25.46875 Z M 17.15625 -25.46875 "/></g></g></g><g fill="#053250" fill-opacity="1"><g transform="translate(77.613663, 83.119755)"><g><path d="M 18.46875 -38.265625 L 23.5 -38.265625 C 23.789062 -38.265625 24.046875 -38.15625 24.265625 -37.9375 C 24.484375 -37.71875 24.59375 -37.460938 24.59375 -37.171875 L 24.59375 -7.875 C 24.59375 -5.320312 23.925781 -3.367188 22.59375 -2.015625 C 21.269531 -0.671875 19.3125 0 16.71875 0 L 10.609375 0 C 8.054688 0 6.101562 -0.671875 4.75 -2.015625 C 3.40625 -3.367188 2.734375 -5.320312 2.734375 -7.875 L 2.734375 -37.171875 C 2.734375 -37.460938 2.84375 -37.71875 3.0625 -37.9375 C 3.28125 -38.15625 3.535156 -38.265625 3.828125 -38.265625 L 9.078125 -38.265625 C 9.367188 -38.265625 9.625 -38.15625 9.84375 -37.9375 C 10.0625 -37.71875 10.171875 -37.460938 10.171875 -37.171875 L 10.171875 -9.40625 C 10.171875 -7.945312 10.898438 -7.21875 12.359375 -7.21875 L 15.1875 -7.21875 C 16.644531 -7.21875 17.375 -7.945312 17.375 -9.40625 L 17.375 -37.171875 C 17.375 -37.460938 17.484375 -37.71875 17.703125 -37.9375 C 17.921875 -38.15625 18.175781 -38.265625 18.46875 -38.265625 Z M 18.46875 -38.265625 "/></g></g></g><g fill="#053250" fill-opacity="1"><g transform="translate(104.939812, 83.119755)"><g><path d="M 24.59375 -30.390625 L 24.59375 -19.40625 C 24.59375 -16.226562 23.570312 -14.003906 21.53125 -12.734375 L 24.375 -0.984375 C 24.5625 -0.328125 24.304688 0 23.609375 0 L 18.25 0 C 17.738281 0 17.429688 -0.253906 17.328125 -0.765625 L 14.703125 -11.53125 L 9.84375 -11.53125 L 9.84375 -0.875 C 9.84375 -0.289062 9.550781 0 8.96875 0 L 3.609375 0 C 3.023438 0 2.734375 -0.289062 2.734375 -0.875 L 2.734375 -37.390625 C 2.734375 -37.972656 3.023438 -38.265625 3.609375 -38.265625 L 16.71875 -38.265625 C 19.3125 -38.265625 21.269531 -37.597656 22.59375 -36.265625 C 23.925781 -34.929688 24.59375 -32.972656 24.59375 -30.390625 Z M 9.84375 -18.578125 L 15.296875 -18.578125 C 16.753906 -18.578125 17.484375 -19.304688 17.484375 -20.765625 L 17.484375 -29.015625 C 17.484375 -30.472656 16.753906 -31.203125 15.296875 -31.203125 L 9.84375 -31.203125 Z M 9.84375 -18.578125 "/></g></g></g><g fill="#053250" fill-opacity="1"><g transform="translate(132.265961, 83.119755)"><g><path d="M 22.625 -38.265625 L 2.515625 -38.265625 C 1.929688 -38.265625 1.640625 -37.972656 1.640625 -37.390625 L 1.640625 -31.921875 C 1.640625 -31.335938 1.929688 -31.046875 2.515625 -31.046875 L 8.859375 -31.046875 L 8.859375 -0.875 C 8.859375 -0.289062 9.148438 0 9.734375 0 L 15.40625 0 C 15.988281 0 16.28125 -0.289062 16.28125 -0.875 L 16.28125 -31.046875 L 22.625 -31.046875 C 23.207031 -31.046875 23.5 -31.335938 23.5 -31.921875 L 23.5 -37.390625 C 23.5 -37.972656 23.207031 -38.265625 22.625 -38.265625 Z M 22.625 -38.265625 "/></g></g></g><g fill="#053250" fill-opacity="1"><g transform="translate(157.406019, 83.119755)"><g><path d="M 10.609375 -38.265625 L 16.71875 -38.265625 C 19.3125 -38.265625 21.269531 -37.597656 22.59375 -36.265625 C 23.925781 -34.929688 24.59375 -32.972656 24.59375 -30.390625 L 24.59375 -26.78125 C 24.59375 -26.195312 24.300781 -25.90625 23.71875 -25.90625 L 18.203125 -25.90625 C 17.617188 -25.90625 17.328125 -26.195312 17.328125 -26.78125 L 17.328125 -29.078125 C 17.328125 -30.535156 16.597656 -31.265625 15.140625 -31.265625 L 12.140625 -31.265625 C 10.679688 -31.265625 9.953125 -30.535156 9.953125 -29.078125 L 9.953125 -24.4375 L 23.171875 -20.171875 C 24.117188 -19.835938 24.59375 -19.160156 24.59375 -18.140625 L 24.59375 -7.875 C 24.59375 -5.320312 23.925781 -3.367188 22.59375 -2.015625 C 21.269531 -0.671875 19.3125 0 16.71875 0 L 10.609375 0 C 8.054688 0 6.101562 -0.671875 4.75 -2.015625 C 3.40625 -3.367188 2.734375 -5.320312 2.734375 -7.875 L 2.734375 -11.421875 C 2.734375 -12.003906 3.023438 -12.296875 3.609375 -12.296875 L 9.125 -12.296875 C 9.707031 -12.296875 10 -12.003906 10 -11.421875 L 10 -9.125 C 10 -7.664062 10.726562 -6.9375 12.1875 -6.9375 L 15.140625 -6.9375 C 16.597656 -6.9375 17.328125 -7.664062 17.328125 -9.125 L 17.328125 -14.640625 L 4.203125 -18.90625 C 3.222656 -19.238281 2.734375 -19.914062 2.734375 -20.9375 L 2.734375 -30.390625 C 2.734375 -32.972656 3.40625 -34.929688 4.75 -36.265625 C 6.101562 -37.597656 8.054688 -38.265625 10.609375 -38.265625 Z M 10.609375 -38.265625 "/></g></g></g><g fill="#053250" fill-opacity="1"><g transform="translate(12.24951, 134.546316)"><g><path d="M 19.515625 -43.71875 L 25.203125 -43.71875 C 25.785156 -43.71875 26.078125 -43.425781 26.078125 -42.84375 L 26.078125 -0.875 C 26.078125 -0.289062 25.785156 0 25.203125 0 L 19.78125 0 C 19.269531 0 18.941406 -0.234375 18.796875 -0.703125 L 10.4375 -24.046875 L 10.171875 -24.046875 L 10.171875 -0.875 C 10.171875 -0.289062 9.878906 0 9.296875 0 L 3.609375 0 C 3.023438 0 2.734375 -0.289062 2.734375 -0.875 L 2.734375 -42.84375 C 2.734375 -43.425781 3.023438 -43.71875 3.609375 -43.71875 L 9.015625 -43.71875 C 9.523438 -43.71875 9.851562 -43.484375 10 -43.015625 L 18.3125 -19.78125 L 18.640625 -19.78125 L 18.640625 -42.84375 C 18.640625 -43.425781 18.929688 -43.71875 19.515625 -43.71875 Z M 19.515625 -43.71875 "/></g></g></g><g fill="#053250" fill-opacity="1"><g transform="translate(41.051261, 134.546316)"><g><path d="M 2.734375 -7.875 L 2.734375 -30.390625 C 2.734375 -32.972656 3.40625 -34.929688 4.75 -36.265625 C 6.101562 -37.597656 8.054688 -38.265625 10.609375 -38.265625 L 16.71875 -38.265625 C 19.3125 -38.265625 21.269531 -37.597656 22.59375 -36.265625 C 23.925781 -34.929688 24.59375 -32.972656 24.59375 -30.390625 L 24.59375 -7.875 C 24.59375 -5.320312 23.925781 -3.367188 22.59375 -2.015625 C 21.269531 -0.671875 19.3125 0 16.71875 0 L 10.609375 0 C 8.054688 0 6.101562 -0.671875 4.75 -2.015625 C 3.40625 -3.367188 2.734375 -5.320312 2.734375 -7.875 Z M 12.03125 -7.046875 L 15.515625 -7.046875 C 16.972656 -7.046875 17.703125 -7.773438 17.703125 -9.234375 L 17.703125 -29.015625 C 17.703125 -30.472656 16.972656 -31.203125 15.515625 -31.203125 L 12.03125 -31.203125 C 10.570312 -31.203125 9.84375 -30.472656 9.84375 -29.015625 L 9.84375 -9.234375 C 9.84375 -7.773438 10.570312 -7.046875 12.03125 -7.046875 Z M 12.03125 -7.046875 "/></g></g></g><g fill="#053250" fill-opacity="1"><g transform="translate(68.37741, 134.546316)"><g><path d="M 33.671875 -38.265625 L 38.8125 -38.265625 C 39.613281 -38.265625 39.957031 -37.878906 39.84375 -37.109375 L 34.59375 -0.984375 C 34.488281 -0.328125 34.085938 0 33.390625 0 L 27.484375 0 C 26.867188 0 26.472656 -0.328125 26.296875 -0.984375 L 21.265625 -23.390625 L 16.171875 -0.984375 C 16.023438 -0.328125 15.625 0 14.96875 0 L 8.96875 0 C 8.269531 0 7.867188 -0.34375 7.765625 -1.03125 L 2.734375 -37.109375 C 2.617188 -37.878906 2.960938 -38.265625 3.765625 -38.265625 L 8.90625 -38.265625 C 9.5625 -38.265625 9.945312 -37.914062 10.0625 -37.21875 L 12.734375 -14.375 L 13.015625 -14.375 L 18.359375 -37.328125 C 18.546875 -37.953125 18.945312 -38.265625 19.5625 -38.265625 L 22.90625 -38.265625 C 23.519531 -38.265625 23.921875 -37.953125 24.109375 -37.328125 L 29.453125 -14.375 L 29.734375 -14.375 L 32.515625 -37.21875 C 32.628906 -37.914062 33.015625 -38.265625 33.671875 -38.265625 Z M 33.671875 -38.265625 "/></g></g></g><g fill="#053250" fill-opacity="1"><g transform="translate(109.356488, 134.851876)"><g><path d="M 1.546875 -0.609375 L 1.546875 -3.453125 C 1.546875 -3.859375 1.75 -4.0625 2.15625 -4.0625 L 4.953125 -4.0625 C 5.367188 -4.0625 5.578125 -3.859375 5.578125 -3.453125 L 5.578125 -0.609375 C 5.578125 -0.203125 5.367188 0 4.953125 0 L 2.15625 0 C 1.75 0 1.546875 -0.203125 1.546875 -0.609375 Z M 1.546875 -0.609375 "/></g></g></g><g fill="#053250" fill-opacity="1"><g transform="translate(116.471848, 134.851876)"><g><path d="M 13.890625 -17.125 L 13.890625 -13.796875 C 13.890625 -13.460938 13.722656 -13.296875 13.390625 -13.296875 L 10.5 -13.296875 C 10.175781 -13.296875 10.015625 -13.460938 10.015625 -13.796875 L 10.015625 -16.328125 C 10.015625 -17.140625 9.601562 -17.546875 8.78125 -17.546875 L 6.8125 -17.546875 C 5.988281 -17.546875 5.578125 -17.140625 5.578125 -16.328125 L 5.578125 -5.140625 C 5.578125 -4.316406 5.988281 -3.90625 6.8125 -3.90625 L 8.78125 -3.90625 C 9.601562 -3.90625 10.015625 -4.316406 10.015625 -5.140625 L 10.015625 -7.765625 C 10.015625 -8.085938 10.175781 -8.25 10.5 -8.25 L 13.390625 -8.25 C 13.722656 -8.25 13.890625 -8.085938 13.890625 -7.765625 L 13.890625 -4.4375 C 13.890625 -3 13.507812 -1.898438 12.75 -1.140625 C 11.988281 -0.378906 10.890625 0 9.453125 0 L 6 0 C 4.5625 0 3.457031 -0.378906 2.6875 -1.140625 C 1.925781 -1.898438 1.546875 -3 1.546875 -4.4375 L 1.546875 -17.125 C 1.546875 -18.582031 1.925781 -19.6875 2.6875 -20.4375 C 3.457031 -21.1875 4.5625 -21.5625 6 -21.5625 L 9.453125 -21.5625 C 10.890625 -21.5625 11.988281 -21.1875 12.75 -20.4375 C 13.507812 -19.6875 13.890625 -18.582031 13.890625 -17.125 Z M 13.890625 -17.125 "/></g></g></g><g fill="#053250" fill-opacity="1"><g transform="translate(131.903862, 134.851876)"><g><path d="M 1.546875 -4.4375 L 1.546875 -17.125 C 1.546875 -18.582031 1.921875 -19.6875 2.671875 -20.4375 C 3.429688 -21.1875 4.53125 -21.5625 5.96875 -21.5625 L 9.421875 -21.5625 C 10.878906 -21.5625 11.984375 -21.1875 12.734375 -20.4375 C 13.484375 -19.6875 13.859375 -18.582031 13.859375 -17.125 L 13.859375 -4.4375 C 13.859375 -3 13.484375 -1.898438 12.734375 -1.140625 C 11.984375 -0.378906 10.878906 0 9.421875 0 L 5.96875 0 C 4.53125 0 3.429688 -0.378906 2.671875 -1.140625 C 1.921875 -1.898438 1.546875 -3 1.546875 -4.4375 Z M 6.78125 -3.96875 L 8.75 -3.96875 C 9.570312 -3.96875 9.984375 -4.378906 9.984375 -5.203125 L 9.984375 -16.359375 C 9.984375 -17.171875 9.570312 -17.578125 8.75 -17.578125 L 6.78125 -17.578125 C 5.957031 -17.578125 5.546875 -17.171875 5.546875 -16.359375 L 5.546875 -5.203125 C 5.546875 -4.378906 5.957031 -3.96875 6.78125 -3.96875 Z M 6.78125 -3.96875 "/></g></g></g><g fill="#053250" fill-opacity="1"><g transform="translate(147.305069, 134.851876)"><g><path d="M 14.40625 -21.5625 L 18.484375 -21.5625 C 18.890625 -21.5625 19.09375 -21.351562 19.09375 -20.9375 L 19.09375 -0.609375 C 19.09375 -0.203125 18.890625 0 18.484375 0 L 15.609375 0 C 15.203125 0 15 -0.203125 15 -0.609375 L 15 -12.71875 L 14.78125 -12.71875 L 11.890625 -0.53125 C 11.785156 -0.175781 11.554688 0 11.203125 0 L 9.390625 0 C 9.046875 0 8.820312 -0.175781 8.71875 -0.53125 L 5.828125 -12.71875 L 5.609375 -12.71875 L 5.609375 -0.609375 C 5.609375 -0.203125 5.398438 0 4.984375 0 L 2.15625 0 C 1.75 0 1.546875 -0.203125 1.546875 -0.609375 L 1.546875 -20.9375 C 1.546875 -21.351562 1.75 -21.5625 2.15625 -21.5625 L 6.21875 -21.5625 C 6.570312 -21.5625 6.800781 -21.382812 6.90625 -21.03125 L 10.3125 -7.296875 L 13.734375 -21.03125 C 13.835938 -21.382812 14.0625 -21.5625 14.40625 -21.5625 Z M 14.40625 -21.5625 "/></g></g></g></svg>