ply
format ascii 1.0
comment VCGLIB generated
element vertex 8
property float x
property float y
property float z
element face 12
property list uchar int vertex_indices
property list uchar float texcoord
property uchar red
property uchar green
property uchar blue
property uchar alpha
end_header
0 0 0 
1 0 0 
1 1 0 
0 1 0 
0 0 1 
1 0 1 
1 1 1 
0 1 1 
3 0 1 5 6 0.000000 0.000000 1.000000 0.000000 1.000000 1.000000 204 0 0 255 
3 0 5 4 6 0.000000 0.000000 1.000000 1.000000 0.000000 1.000000 204 0 0 255 
3 1 2 6 6 0.000000 0.000000 1.000000 0.000000 1.000000 1.000000 0 204 0 255 
3 1 6 5 6 0.000000 0.000000 1.000000 1.000000 0.000000 1.000000 0 204 0 255 
3 2 3 7 6 0.000000 0.000000 1.000000 0.000000 1.000000 1.000000 0 0 204 255 
3 2 7 6 6 0.000000 0.000000 1.000000 1.000000 0.000000 1.000000 0 0 204 255 
3 3 0 4 6 0.000000 0.000000 1.000000 0.000000 1.000000 1.000000 204 204 204 255 
3 3 4 7 6 0.000000 0.000000 1.000000 1.000000 0.000000 1.000000 204 204 204 255 
3 0 3 2 6 0.000000 0.000000 1.000000 0.000000 1.000000 1.000000 204 204 204 255 
3 0 2 1 6 0.000000 0.000000 1.000000 1.000000 0.000000 1.000000 204 204 204 255 
3 4 5 6 6 0.000000 0.000000 1.000000 0.000000 1.000000 1.000000 204 204 204 255 
3 4 6 7 6 0.000000 0.000000 1.000000 1.000000 0.000000 1.000000 204 204 204 255 
