<?xml version="1.0" standalone="no"?>
<!DOCTYPE svg PUBLIC "-//W3C//DTD SVG 20010904//EN"
 "http://www.w3.org/TR/2001/REC-SVG-20010904/DTD/svg10.dtd">
<svg version="1.0" xmlns="http://www.w3.org/2000/svg"
 width="1064.000000pt" height="1064.000000pt" viewBox="0 0 1064.000000 1064.000000"
 preserveAspectRatio="xMidYMid meet">
<metadata>
Created by potrace 1.14, written by Peter Selinger 2001-2017
</metadata>
<g transform="translate(0.000000,1064.000000) scale(0.100000,-0.100000)"
fill="#000000" stroke="none">
<path d="M703 8933 c-9 -3 -13 -31 -13 -93 0 -58 4 -91 13 -97 6 -5 51 -9 100
-8 55 1 87 -3 88 -9 1 -6 2 -235 3 -508 0 -273 4 -499 7 -503 8 -8 189 -8 198
0 3 3 5 234 5 513 l0 507 85 -1 c120 -1 119 -1 117 98 -1 46 -5 88 -9 94 -5 9
-88 12 -294 12 -159 -1 -294 -3 -300 -5z"/>
<path d="M3590 8930 c-16 -10 -18 -1196 -2 -1212 11 -11 180 -14 190 -4 2 3 5
163 5 356 0 193 4 353 8 355 4 3 11 -19 15 -47 4 -29 8 -55 9 -58 7 -24 16
-59 20 -80 2 -14 11 -55 19 -91 16 -69 21 -93 31 -144 3 -16 11 -50 16 -75 18
-76 19 -84 29 -133 12 -61 26 -87 48 -88 48 -3 84 1 96 10 11 10 34 90 42 146
1 11 9 49 18 85 8 36 17 76 20 90 2 14 9 45 15 70 5 25 12 57 15 72 2 15 7 31
9 35 3 5 8 25 11 45 3 21 11 59 17 85 6 27 12 53 13 60 1 7 5 16 9 19 4 4 7
-153 7 -349 0 -213 4 -358 9 -362 13 -7 162 -8 181 -1 13 5 15 82 15 604 0
328 -3 602 -7 608 -4 6 -52 11 -122 12 -95 0 -117 -2 -129 -16 -12 -15 -19
-40 -43 -162 -3 -14 -16 -71 -29 -128 -14 -56 -27 -113 -29 -125 -4 -23 -19
-97 -22 -109 -1 -5 -2 -9 -3 -10 -2 -2 -5 -14 -7 -28 -11 -61 -46 -201 -50
-198 -3 4 -14 53 -38 168 -5 28 -9 41 -26 115 -7 28 -14 59 -16 70 -1 11 -5
29 -8 40 -3 11 -15 63 -26 115 -12 52 -23 104 -26 115 -3 11 -7 31 -10 45 -14
68 -26 99 -42 104 -25 8 -218 5 -232 -4z"/>
<path d="M5381 8926 c-5 -6 -7 -18 -6 -26 1 -9 6 -47 9 -85 4 -39 9 -83 11
-100 3 -16 7 -57 10 -90 3 -33 8 -78 10 -100 3 -22 7 -67 10 -100 3 -33 8 -71
10 -85 3 -14 7 -54 11 -90 3 -36 7 -76 9 -90 2 -14 7 -59 10 -100 3 -41 9 -88
11 -105 3 -16 7 -50 9 -75 9 -103 17 -156 25 -164 9 -9 184 -11 199 -2 7 5 16
34 25 86 1 3 5 11 9 18 5 6 6 12 3 12 -2 0 0 15 5 33 6 17 12 44 14 59 2 15 9
46 15 69 7 24 13 52 14 63 2 12 9 41 16 66 6 25 14 54 16 65 2 11 8 39 14 63
5 23 15 63 21 90 21 90 21 90 41 12 19 -80 19 -81 38 -180 7 -36 17 -71 23
-78 5 -7 7 -15 4 -18 -3 -3 -1 -21 5 -41 5 -19 11 -43 13 -52 1 -9 8 -34 14
-56 5 -22 13 -53 16 -70 7 -42 33 -136 38 -142 4 -4 82 -6 164 -4 36 1 39 8
48 91 3 30 8 66 10 80 3 14 7 55 11 90 3 36 7 76 9 90 6 46 16 134 21 185 11
109 12 120 14 120 1 0 3 18 4 40 2 22 6 63 10 90 7 63 13 113 21 190 3 33 8
71 10 85 2 14 7 55 11 92 7 78 10 75 -108 77 -96 1 -93 4 -103 -124 -3 -38 -8
-88 -10 -110 -10 -110 -18 -204 -20 -245 -2 -25 -4 -45 -5 -45 -2 0 -13 -139
-14 -187 -1 -55 -13 -46 -26 20 -6 31 -15 75 -20 97 -5 22 -12 54 -15 70 -3
17 -8 41 -10 55 -5 23 -9 46 -19 88 -2 9 -20 95 -40 191 -20 96 -41 178 -48
182 -20 12 -126 9 -136 -4 -8 -11 -90 -378 -97 -434 -2 -11 -6 -30 -9 -41 -4
-11 -8 -29 -10 -39 -2 -10 -12 -58 -21 -108 -19 -95 -34 -130 -36 -79 -1 30
-2 50 -14 164 -4 36 -8 92 -11 125 -10 144 -13 184 -19 245 -12 138 -17 165
-28 172 -18 11 -176 6 -186 -6z"/>
<path d="M1439 8780 c-13 -9 -14 -1049 -1 -1062 9 -9 589 -15 598 -5 9 9 9
178 0 187 -6 6 -91 10 -203 10 -147 0 -193 3 -194 13 0 6 -1 57 -1 112 l-1
100 147 1 c81 1 152 6 157 11 10 10 15 181 5 190 -3 3 -73 6 -156 6 -99 0
-150 4 -151 11 -1 16 -1 167 0 199 l1 27 194 0 c142 0 197 3 202 12 10 15 9
177 -1 186 -8 8 -582 10 -596 2z"/>
<path d="M2206 8775 c-13 -13 -16 -1048 -4 -1060 9 -9 516 -10 525 -2 7 7 11
143 5 175 -4 22 -6 22 -163 22 -88 0 -160 3 -160 8 -1 4 -2 197 -3 429 -1 232
-5 425 -9 429 -12 12 -178 11 -191 -1z"/>
<path d="M2908 8781 c-7 -2 -15 -7 -18 -12 -7 -11 -4 -1048 3 -1055 8 -8 517
-7 525 1 7 7 11 165 5 183 -4 9 -46 12 -164 12 -87 0 -159 3 -160 8 -1 4 -2
197 -3 429 0 232 -5 425 -9 429 -8 9 -155 13 -179 5z"/>
<path d="M4628 8782 c-10 -2 -18 -13 -19 -25 -4 -106 0 -1039 4 -1044 8 -7
569 -7 593 1 19 6 20 24 14 184 0 9 -47 12 -200 12 -183 0 -200 1 -201 18 0 9
-1 60 -1 112 l-1 95 141 1 c78 1 149 4 157 8 20 7 22 179 3 192 -7 5 -77 9
-155 9 -94 -1 -143 2 -144 9 -1 13 -1 207 0 219 1 4 88 7 195 7 133 0 197 4
202 11 9 14 9 178 0 187 -7 6 -556 10 -588 4z"/>
<path d="M6552 8775 c-9 -13 -10 -1042 -1 -1057 8 -13 190 -13 198 1 3 5 6
102 5 215 l0 206 23 1 c13 0 50 0 83 0 33 0 67 0 75 0 13 -1 15 -31 15 -205 0
-112 2 -210 5 -218 4 -10 27 -12 92 -11 48 2 93 5 100 8 9 3 13 26 13 67 0 35
0 70 0 78 0 8 0 56 0 105 0 50 1 97 2 105 1 8 -2 25 -6 38 -5 14 -3 22 4 22 6
0 8 4 5 10 -3 5 -6 49 -5 97 1 100 1 88 0 208 0 50 1 97 2 105 1 8 -2 25 -6
38 -5 14 -3 22 4 22 6 0 9 4 6 9 -4 5 -7 40 -8 78 -1 37 -3 73 -5 79 -4 12
-171 12 -191 0 -9 -5 -12 -63 -12 -220 l0 -212 -92 2 c-51 1 -96 2 -99 3 -3 0
-5 95 -5 211 0 115 -3 213 -7 217 -12 11 -187 10 -195 -2z"/>
<path d="M7320 8770 c-12 -22 -10 -1049 2 -1056 19 -12 590 -6 598 6 5 8 6
150 1 183 0 4 -90 7 -200 7 l-198 0 1 76 c1 42 -2 78 -6 81 -5 2 -5 9 -2 15 4
6 7 20 8 32 1 20 6 21 150 22 95 1 151 5 155 12 9 14 7 180 -2 189 -4 3 -73 7
-154 7 l-148 1 -1 117 -1 117 171 0 c94 0 176 1 181 2 6 1 19 2 30 3 18 1 20
8 21 94 0 55 -4 96 -10 100 -6 3 -141 7 -299 7 -249 0 -290 -2 -297 -15z"/>
<path d="M8088 8779 c-10 -7 -17 -1054 -6 -1064 8 -8 174 -9 185 -2 7 5 12 62
12 159 1 84 4 154 6 156 4 4 42 5 106 3 25 -1 27 -6 63 -156 21 -85 43 -158
49 -162 13 -8 165 -5 178 3 9 5 8 17 -4 64 -50 192 -67 285 -55 295 25 19 55
70 64 110 15 63 10 436 -6 476 -19 48 -68 93 -115 109 -42 14 -456 22 -477 9z
m389 -212 c14 -14 17 -38 18 -147 1 -79 -4 -142 -11 -158 -11 -28 -12 -28
-108 -29 l-96 -1 0 177 0 177 90 -1 c71 0 93 -4 107 -18z"/>
<path d="M8853 8776 c-8 -12 -10 -1045 -2 -1058 8 -13 587 -14 600 -1 8 8 15
118 9 148 -1 6 -2 18 -1 28 2 16 -13 17 -197 17 -151 0 -201 3 -204 13 -3 10
-2 137 1 198 1 14 20 16 145 17 80 0 149 3 155 7 7 4 11 44 11 101 0 82 -2 94
-17 95 -10 1 -80 1 -155 1 l-138 0 -1 27 c-3 70 -2 202 2 206 3 2 93 5 201 5
l196 2 4 40 c2 22 0 42 -4 44 -5 3 -5 10 -1 17 7 12 5 88 -3 97 -10 9 -596 6
-601 -4z"/>
<path d="M900 7463 c0 -4 -21 -8 -46 -8 -28 0 -48 -6 -54 -15 -5 -8 -9 -514
-9 -1151 0 -1014 2 -1139 15 -1150 12 -10 62 -13 190 -13 96 1 177 4 182 8 4
4 8 523 9 1152 1 967 -1 1147 -13 1158 -10 11 -43 14 -132 14 -65 -1 -124 2
-130 6 -7 4 -12 4 -12 -1z"/>
<path d="M3700 7463 c0 -4 -20 -7 -45 -7 -25 1 -49 -3 -55 -11 -7 -8 -11 -170
-13 -486 l-2 -473 -173 0 c-95 -1 -178 1 -185 4 -9 4 -12 117 -12 478 0 409
-2 474 -15 482 -8 6 -92 10 -188 9 -159 -1 -173 -2 -182 -20 -7 -13 -11 -393
-10 -1151 0 -967 2 -1134 14 -1147 12 -14 42 -16 186 -15 119 1 174 4 183 13
9 9 12 128 12 484 l1 472 186 3 186 2 1 -472 c0 -446 2 -474 19 -488 24 -20
345 -21 365 -1 18 18 18 2276 0 2301 -11 16 -29 18 -131 18 -66 -1 -124 2
-130 6 -7 4 -12 4 -12 -1z"/>
<path d="M1438 7156 c-14 -10 -16 -38 -16 -179 0 -125 3 -171 13 -181 10 -10
55 -13 185 -12 105 1 174 -3 178 -9 4 -5 7 -374 7 -818 0 -728 2 -810 16 -821
21 -15 356 -13 371 2 7 7 10 272 10 826 0 449 3 816 7 817 3 1 86 2 183 2 97
1 180 6 185 10 4 5 8 85 9 179 1 129 -2 173 -12 183 -18 18 -1111 19 -1136 1z"/>
<path d="M4297 7150 c-21 -17 -21 -19 -21 -836 1 -451 4 -838 7 -862 4 -23 11
-51 17 -62 6 -11 8 -20 5 -20 -3 0 6 -23 20 -50 57 -113 172 -181 320 -190
135 -8 457 -1 507 10 166 39 259 143 285 320 3 25 7 407 7 849 1 736 0 806
-16 832 l-17 27 -160 -1 c-133 -2 -163 -5 -177 -18 -14 -15 -16 -89 -16 -780
-1 -420 -5 -778 -9 -795 -13 -46 -60 -64 -172 -64 -113 0 -162 13 -185 48 -16
24 -17 82 -18 800 l0 775 -23 18 c-21 17 -40 19 -178 17 -129 -1 -159 -5 -176
-18z"/>
<path d="M5760 7162 c-8 -3 -17 -9 -20 -13 -3 -4 -5 -455 -5 -1003 0 -783 3
-998 13 -1008 16 -16 337 -17 354 0 8 8 12 98 12 307 l0 295 28 1 c15 0 46 1
68 1 22 0 68 -1 103 -1 l63 -1 32 -137 c18 -76 35 -149 38 -163 2 -14 9 -40
15 -58 6 -18 12 -43 14 -55 8 -54 44 -180 54 -190 11 -11 272 -17 326 -7 25 5
30 11 31 35 0 17 -3 41 -8 54 -5 13 -11 38 -13 55 -3 17 -10 49 -16 71 -5 22
-14 56 -18 75 -31 134 -64 267 -68 280 -3 8 -7 22 -9 30 -15 80 -16 77 17 101
60 43 116 156 124 253 7 75 7 267 2 273 -4 3 -2 14 4 25 7 13 7 23 0 32 -6 7
-8 16 -5 19 7 7 6 370 -2 406 -31 149 -82 228 -184 282 -78 40 -132 45 -540
46 -217 0 -402 -2 -410 -5z m713 -390 c37 -21 49 -56 47 -137 0 -33 -1 -67 0
-75 1 -53 2 -109 1 -135 -1 -16 0 -50 2 -75 1 -25 -1 -53 -5 -62 -5 -9 -4 -19
1 -22 5 -3 5 -21 1 -40 -4 -19 -6 -37 -4 -38 7 -7 -45 -60 -63 -63 -10 -2 -20
-4 -23 -5 -14 -6 -37 -5 -57 2 -12 4 -24 4 -27 0 -3 -6 -133 -7 -217 -3 -14 1
-15 39 -15 334 0 315 1 332 18 337 11 3 85 4 165 3 119 -2 152 -6 176 -21z"/>
<path d="M7143 7156 c-12 -19 -11 -341 1 -358 9 -11 42 -15 166 -15 85 -1 167
-1 182 -2 l26 -1 0 -762 c1 -919 0 -860 11 -877 12 -19 355 -21 374 -2 9 9 12
196 12 821 0 444 3 812 7 816 4 4 87 7 183 8 144 1 177 4 185 16 6 8 10 90 9
183 -1 146 -3 168 -18 176 -25 14 -1130 11 -1138 -3z"/>
<path d="M8810 7151 c-80 -24 -126 -49 -170 -93 -41 -42 -84 -123 -95 -179 -4
-19 -8 -176 -10 -349 -3 -332 0 -356 44 -379 19 -11 133 -49 386 -130 88 -29
167 -54 175 -58 8 -3 20 -7 25 -8 6 -2 40 -13 78 -25 l67 -22 1 -46 c2 -137
-1 -268 -6 -293 -4 -16 -20 -38 -37 -50 -27 -20 -43 -22 -147 -22 -64 1 -128
6 -143 11 -46 19 -63 71 -58 182 3 54 -1 72 -18 85 -18 15 -337 11 -356 -4
-20 -17 -14 -315 8 -386 22 -71 68 -139 118 -175 99 -72 170 -86 448 -84 229
2 279 7 357 36 80 30 173 126 194 200 23 88 27 140 25 388 0 148 3 270 7 270
4 0 4 8 -1 18 -5 9 -7 32 -5 50 4 40 -19 88 -47 97 -11 3 -20 11 -20 16 0 5
-6 9 -13 9 -8 0 -40 9 -73 19 -32 10 -167 54 -299 96 -300 96 -325 105 -326
119 0 6 -1 67 -1 136 0 198 12 212 182 214 132 1 163 -5 190 -44 17 -24 21
-44 21 -124 0 -69 4 -98 14 -106 21 -17 340 -16 361 1 12 10 14 41 11 183 -2
108 -8 179 -16 194 -6 12 -9 22 -6 22 13 0 -49 103 -84 139 -42 43 -78 64
-150 88 -69 24 -553 26 -631 4z"/>
<path d="M811 4708 c-19 -7 -20 -26 -20 -1150 0 -657 4 -1150 9 -1158 7 -12
42 -15 177 -16 92 0 177 3 189 9 l21 9 -1 629 c-1 441 2 629 10 629 6 0 29
-53 51 -117 54 -156 103 -294 110 -313 4 -8 7 -17 8 -20 1 -3 4 -12 8 -20 3
-8 17 -49 32 -90 15 -41 36 -98 47 -126 11 -29 21 -58 22 -65 2 -8 6 -21 9
-29 25 -63 80 -218 82 -232 2 -10 7 -24 12 -31 4 -6 8 -16 9 -22 3 -14 42
-122 61 -167 8 -20 23 -38 32 -40 30 -8 340 -3 348 6 11 10 11 2302 0 2312
-14 14 -353 12 -372 -2 -14 -11 -16 -74 -16 -638 0 -581 -4 -686 -25 -598 -4
15 -10 32 -14 37 -3 6 -13 30 -20 55 -7 25 -17 50 -21 55 -4 6 -8 15 -9 20 -4
15 -11 37 -23 70 -6 17 -13 35 -14 40 -1 6 -24 71 -51 145 -27 74 -88 245
-136 380 -48 135 -92 256 -97 270 -6 13 -20 51 -31 85 -31 93 -25 90 -208 90
-88 0 -168 -3 -179 -7z"/>
<path d="M2685 4423 c-11 -2 -45 -8 -75 -15 -30 -6 -58 -11 -62 -10 -5 1 -8
-2 -8 -8 0 -5 -5 -10 -11 -10 -6 0 -30 -14 -54 -30 -77 -53 -127 -146 -141
-263 -10 -78 -10 -1303 -1 -1367 14 -88 35 -150 51 -150 5 0 7 -3 3 -6 -10
-11 43 -73 90 -105 44 -30 102 -54 157 -65 51 -10 459 -11 531 -2 177 24 293
137 321 313 9 56 11 1307 2 1377 -11 86 -43 166 -86 217 -46 54 -141 106 -216
117 -48 7 -458 13 -501 7z m388 -390 c53 -27 53 -28 52 -635 0 -527 -1 -566
-18 -591 -10 -16 -28 -32 -40 -37 -12 -4 -86 -7 -164 -7 -162 2 -179 10 -192
83 -11 65 -4 1116 7 1145 18 46 63 59 202 58 88 -1 133 -6 153 -16z"/>
<path d="M3808 4416 c-26 -13 -30 -35 -18 -95 5 -26 12 -71 15 -101 4 -30 9
-71 12 -90 6 -49 10 -78 17 -130 4 -25 8 -58 11 -75 3 -16 7 -43 10 -60 3 -16
7 -52 10 -80 4 -27 8 -61 10 -75 2 -14 7 -47 10 -75 3 -27 8 -57 10 -65 2 -8
7 -40 10 -70 3 -30 8 -68 11 -85 6 -30 7 -36 18 -135 4 -30 9 -62 11 -70 2 -8
7 -40 10 -70 3 -30 9 -68 11 -85 3 -16 7 -41 9 -55 2 -14 6 -45 9 -70 8 -54
16 -109 20 -147 13 -100 28 -202 32 -223 2 -14 7 -47 10 -75 3 -27 13 -61 23
-75 l18 -25 179 -1 c99 0 189 4 202 9 22 10 43 63 57 142 2 17 7 41 10 55 3
14 8 36 11 49 3 14 7 28 10 33 3 5 7 22 9 38 2 16 9 48 15 71 7 24 13 54 15
68 2 14 4 26 5 26 1 0 3 9 5 20 2 11 16 70 30 130 15 61 28 119 31 130 2 11 6
31 9 45 3 14 7 34 9 45 3 11 12 52 21 90 9 39 18 77 20 85 2 8 9 38 15 65 17
73 22 98 23 113 0 13 16 17 18 5 0 -5 2 -15 4 -23 2 -8 6 -27 9 -42 3 -16 9
-40 12 -55 3 -16 7 -32 8 -38 8 -32 36 -154 52 -225 3 -14 7 -34 8 -45 2 -11
6 -27 9 -35 3 -8 11 -42 18 -75 7 -33 14 -64 15 -70 1 -5 4 -21 7 -35 3 -14
15 -64 26 -112 22 -95 33 -146 34 -165 0 -7 4 -13 9 -13 5 0 7 -4 4 -8 -3 -5
1 -32 9 -61 7 -28 13 -54 13 -56 2 -34 27 -120 42 -137 18 -22 24 -23 192 -24
172 -1 224 6 226 29 0 7 3 23 6 37 3 14 8 41 10 60 3 19 7 44 10 56 2 11 7 45
10 75 3 30 8 63 10 74 4 21 15 99 22 150 10 73 14 101 18 120 2 11 7 47 10 80
4 33 9 68 12 77 3 9 7 32 9 50 2 18 6 50 9 71 3 20 8 52 10 70 9 69 19 133 22
152 3 11 7 40 10 65 3 25 7 56 9 70 9 52 41 274 51 345 3 28 8 59 10 70 2 11
7 40 10 65 3 25 8 56 10 70 7 36 14 89 19 135 2 22 6 50 9 63 3 14 -2 29 -14
40 -17 16 -39 18 -181 17 -156 0 -162 -1 -180 -24 -10 -13 -19 -35 -20 -50 0
-14 -2 -33 -4 -41 -1 -8 -6 -46 -9 -85 -4 -38 -9 -77 -11 -85 -2 -8 -7 -42
-10 -75 -11 -93 -12 -107 -19 -160 -3 -27 -8 -72 -11 -100 -3 -27 -7 -59 -9
-70 -2 -11 -7 -51 -11 -88 -3 -37 -8 -76 -10 -85 -1 -9 -6 -44 -9 -77 -4 -33
-9 -71 -11 -85 -4 -27 -13 -100 -21 -170 -2 -25 -7 -54 -11 -65 -5 -19 -6 -18
-14 4 -7 17 -71 284 -94 391 -3 13 -14 62 -31 135 -3 11 -7 31 -10 45 -3 14
-8 34 -11 45 -4 11 -8 25 -9 30 -9 43 -14 63 -19 85 -3 14 -8 36 -11 50 -3 14
-11 50 -19 80 -8 30 -16 66 -19 80 -46 223 -68 293 -94 306 -34 17 -237 11
-255 -7 -12 -12 -38 -100 -52 -178 -2 -13 -9 -38 -14 -55 -5 -17 -13 -49 -17
-71 -4 -22 -8 -42 -9 -45 -1 -3 -5 -23 -10 -45 -13 -56 -12 -55 -14 -57 -2 -2
-4 -12 -6 -24 -3 -11 -14 -60 -25 -110 -12 -49 -23 -98 -26 -109 -2 -11 -6
-32 -10 -47 -3 -15 -5 -29 -4 -30 1 -2 -3 -15 -9 -31 -6 -15 -13 -38 -15 -50
-3 -12 -7 -33 -10 -47 -3 -14 -19 -83 -36 -155 -17 -71 -33 -145 -37 -163 -3
-18 -10 -35 -14 -38 -10 -6 -11 -2 -14 36 -2 14 -5 43 -9 65 -3 22 -8 67 -11
100 -4 33 -8 74 -11 90 -3 17 -7 50 -9 75 -2 25 -7 63 -10 85 -3 22 -8 60 -10
85 -4 43 -7 66 -20 170 -3 25 -8 65 -10 90 -6 53 -12 108 -20 170 -3 25 -8 65
-10 90 -7 52 -15 112 -21 155 -9 56 -19 59 -189 61 -94 0 -164 -4 -177 -10z"/>
<path d="M7247 3524 c-3 -4 -52 -7 -109 -9 -147 -3 -200 -32 -237 -131 -17
-45 -18 -85 -16 -454 2 -434 3 -442 55 -497 50 -54 100 -65 285 -65 150 0 199
11 251 58 22 20 59 84 48 84 -4 0 -2 6 3 13 6 6 10 32 9 55 0 24 1 45 4 47 3
2 3 60 0 129 -3 69 -1 126 3 126 5 0 5 5 2 11 -10 14 -12 109 -3 109 4 0 5 7
1 17 -6 14 -7 69 -3 91 4 18 -1 182 -6 230 -8 65 -52 128 -108 155 -20 10 -65
20 -98 23 -34 3 -65 7 -68 9 -4 3 -10 2 -13 -1z m70 -237 c14 -14 16 -58 16
-341 0 -390 8 -366 -117 -366 -45 0 -87 4 -94 8 -24 16 -28 69 -27 376 l1 308
23 17 c31 24 174 22 198 -2z"/>
<path d="M8520 3524 c0 -5 -34 -9 -75 -8 -42 0 -78 -3 -81 -8 -6 -9 -51 -172
-58 -210 -2 -13 -27 -115 -56 -228 -28 -113 -54 -214 -56 -225 -3 -11 -7 -27
-9 -35 -2 -8 -4 -21 -4 -29 -1 -16 -14 -7 -17 12 -2 7 -12 50 -24 97 -12 47
-23 93 -25 103 -2 10 -7 27 -10 37 -3 10 -8 27 -10 37 -2 10 -11 46 -20 80 -9
35 -18 72 -20 84 -2 11 -7 29 -10 39 -3 10 -7 27 -9 37 -12 60 -49 190 -57
199 -10 12 -246 14 -264 2 -12 -8 -15 -1122 -3 -1134 11 -11 189 -7 200 4 11
11 13 85 3 101 -3 5 -2 12 2 14 10 6 9 109 0 124 -4 7 -4 14 0 16 10 6 9 59
-1 75 -4 7 -4 17 0 24 10 16 11 127 2 154 -4 12 -4 25 -1 28 4 3 6 33 6 66 0
33 3 60 7 60 3 0 13 -30 20 -67 8 -38 15 -72 17 -78 10 -38 35 -137 43 -175 6
-25 12 -54 15 -65 3 -11 7 -31 11 -45 9 -43 12 -55 14 -55 1 0 3 -9 5 -20 2
-11 7 -36 11 -55 18 -89 29 -110 59 -111 93 -4 113 -1 124 19 9 17 23 74 116
470 24 101 46 186 49 190 3 3 6 -143 6 -324 0 -181 4 -335 9 -343 7 -11 32
-14 100 -13 50 0 95 3 100 6 11 7 21 56 10 56 -4 0 -4 12 0 28 5 15 5 37 0 49
-5 13 -4 25 1 28 6 3 6 15 0 30 -6 15 -6 25 0 25 5 0 5 12 0 29 -4 16 -6 32
-3 35 8 8 9 186 1 186 -4 0 -3 14 2 30 5 17 5 30 1 30 -4 0 -5 22 -1 48 3 27
3 61 -1 75 -4 15 -3 29 1 32 5 3 5 16 0 30 -6 15 -6 27 0 30 6 3 6 15 0 30 -6
15 -6 27 0 30 6 3 6 15 0 30 -5 14 -6 25 -2 25 9 0 7 114 -2 128 -3 6 -2 13 3
17 7 3 7 15 1 30 -6 15 -6 27 0 30 5 3 6 15 1 28 -9 23 -11 31 -11 46 0 4 -19
7 -42 7 -24 -1 -49 2 -55 7 -7 5 -13 6 -13 1z"/>
<path d="M6198 3504 c-52 -16 -112 -76 -127 -129 -5 -16 -9 -212 -10 -435 0
-400 0 -406 22 -451 35 -71 73 -100 152 -115 47 -9 255 -9 308 0 106 17 165
90 172 211 2 36 7 70 10 75 3 6 3 10 -2 10 -4 0 -8 26 -7 57 0 32 -1 63 -3 70
-3 8 -35 11 -99 11 -108 -1 -102 5 -103 -106 0 -92 -5 -108 -39 -119 -59 -19
-189 -3 -193 25 -1 4 -2 153 -3 331 -1 279 1 327 14 344 13 15 30 19 90 21 84
2 117 -8 126 -37 3 -11 6 -58 7 -104 0 -69 2 -83 16 -84 64 -5 159 -3 173 3
10 5 15 17 14 33 -2 14 1 25 6 25 5 0 6 5 2 12 -4 6 -8 57 -9 112 -2 136 -27
186 -115 232 -47 23 -329 29 -402 8z"/>
<path d="M5695 2578 c-12 -7 -15 -29 -15 -103 0 -52 4 -96 9 -100 13 -8 190
-9 198 -2 9 9 11 167 3 192 -6 17 -17 19 -93 20 -47 1 -93 -3 -102 -7z"/>
</g>
</svg>
