# Alias OBJ Model File
# Exported from SketchUp, (c) 2000-2012 Trimble Navigation Limited
# File units = meters

mtllib cubeobj.mtl

g Mesh1 Model

usemtl FrontColor
v -1.94623 0 0.600186
vt 76.6233 -23.6294
vn 0 -1 -0
v -1.94623 0 -0.979814
vt 76.6233 38.5753
v 1.51377 0 -0.979814
vt -59.5972 38.5753
v 1.51377 0 0.600186
vt -59.5972 -23.6294
f 1/1/1 2/2/1 3/3/1 4/4/1 

vt -38.5753 0
vn -1 0 -0
vt 23.6294 0
v -1.94623 0.69 0.600186
vt 23.6294 27.1654
v -1.94623 0.69 -0.979814
vt -38.5753 27.1654
f 2/5/2 1/6/2 5/7/2 6/8/2 

usemtl M_0076_Green
vt -76.6233 0
vn 0 0 1
vt 59.5972 0
v 1.51377 0.69 0.600186
vt 59.5972 27.1654
vt -76.6233 27.1654
f 1/9/3 4/10/3 7/11/3 5/12/3 

usemtl M_0103_Blue
vt -23.6294 0
vn 1 0 -0
vt 38.5753 0
v 1.51377 0.69 -0.979814
vt 38.5753 27.1654
vt -23.6294 27.1654
f 4/13/4 3/14/4 8/15/4 7/16/4 

usemtl FrontColor
vt -59.5972 0
vn 0 0 -1
vt 76.6233 0
vt 76.6233 27.1654
vt -59.5972 27.1654
f 3/17/5 2/18/5 6/19/5 8/20/5 

usemtl M_0020_Red
vt -76.6233 38.5753
vn 0 1 -0
vt -76.6233 -23.6294
vt 59.5972 -23.6294
vt 59.5972 38.5753
f 6/21/6 5/22/6 7/23/6 8/24/6 

