<?xml version="1.0" encoding="UTF-8" standalone="no"?>
<svg
   xmlns:dc="http://purl.org/dc/elements/1.1/"
   xmlns:cc="http://creativecommons.org/ns#"
   xmlns:rdf="http://www.w3.org/1999/02/22-rdf-syntax-ns#"
   xmlns:svg="http://www.w3.org/2000/svg"
   xmlns="http://www.w3.org/2000/svg"
   xmlns:sodipodi="http://sodipodi.sourceforge.net/DTD/sodipodi-0.dtd"
   xmlns:inkscape="http://www.inkscape.org/namespaces/inkscape"
   xml:space="preserve"
   style="enable-background:new 0 0 18 18;"
   viewBox="0 0 18 18"
   y="0px"
   x="0px"
   id="Layer_1"
   version="1.1"
   sodipodi:docname="settings.svg"
   inkscape:version="0.92.4 (5da689c313, 2019-01-14)"><sodipodi:namedview
   pagecolor="#ffffff"
   bordercolor="#666666"
   borderopacity="1"
   objecttolerance="10"
   gridtolerance="10"
   guidetolerance="10"
   inkscape:pageopacity="0"
   inkscape:pageshadow="2"
   inkscape:window-width="1536"
   inkscape:window-height="801"
   id="namedview16"
   showgrid="false"
   inkscape:zoom="35.111111"
   inkscape:cx="8.6439873"
   inkscape:cy="9"
   inkscape:window-x="-8"
   inkscape:window-y="-8"
   inkscape:window-maximized="1"
   inkscape:current-layer="Layer_1" /><metadata
   id="metadata60"><rdf:RDF><cc:Work
       rdf:about=""><dc:format>image/svg+xml</dc:format><dc:type
         rdf:resource="http://purl.org/dc/dcmitype/StillImage" /><dc:title /></cc:Work></rdf:RDF></metadata><defs
   id="defs58" />
<style
   id="style49"
   type="text/css">
	.st0{fill:none;stroke:#263238;stroke-linecap:round;stroke-linejoin:round;}
	.st1{fill:#FFFFFF;stroke:#263238;stroke-miterlimit:10;}
</style>
<path
   id="path51"
   d="M14.9,7.9L17,6.1l0,0c-0.2-0.5-0.4-0.9-0.6-1.4c-0.3-0.4-0.6-0.9-0.9-1.2l0,0l-2.6,1C12.4,4,11.7,3.6,11,3.3  l0,0l-0.4-2.7l0,0C10,0.5,9.5,0.5,9,0.5s-1,0-1.5,0.1l0,0L7,3.3C6.3,3.6,5.7,3.9,5.1,4.4l0,0l-2.6-1l0,0C2.2,3.9,1.9,4.3,1.6,4.8  C1.4,5.2,1.2,5.7,1,6.1l0,0l2.1,1.7C3,8.6,3,9.4,3.1,10.1l0,0L1,11.9l0,0c0.2,0.5,0.4,0.9,0.6,1.4c0.3,0.4,0.6,0.9,0.9,1.2l0,0  l2.6-1C5.6,14,6.3,14.4,7,14.7l0,0l0.4,2.7l0,0c0.5,0.1,1,0.1,1.5,0.1s1,0,1.5-0.1l0,0l0.4-2.7c0.7-0.2,1.4-0.6,1.9-1.1l0,0l2.6,1  l0,0c0.3-0.4,0.6-0.8,0.9-1.3c0.3-0.4,0.5-0.9,0.6-1.4l0,0l-2.1-1.7C15,9.4,15,8.6,14.9,7.9"
   class="st0" />
<circle
   id="circle53"
   r="2.5"
   cy="9"
   cx="9"
   class="st1"
   style="fill:none" />
</svg>