<?xml version="1.0" encoding="UTF-8" standalone="no"?>
<svg
   xmlns:dc="http://purl.org/dc/elements/1.1/"
   xmlns:cc="http://creativecommons.org/ns#"
   xmlns:rdf="http://www.w3.org/1999/02/22-rdf-syntax-ns#"
   xmlns:svg="http://www.w3.org/2000/svg"
   xmlns="http://www.w3.org/2000/svg"
   xmlns:xlink="http://www.w3.org/1999/xlink"
   xmlns:sodipodi="http://sodipodi.sourceforge.net/DTD/sodipodi-0.dtd"
   xmlns:inkscape="http://www.inkscape.org/namespaces/inkscape"
   xml:space="preserve"
   width="1280"
   height="640"
   version="1.1"
   id="svg100"
   sodipodi:docname="3dviewer_net_logo_social.svg"
   inkscape:version="0.92.3 (2405546, 2018-03-11)"><metadata
     id="metadata38"><rdf:RDF><cc:Work
         rdf:about=""><dc:format>image/svg+xml</dc:format><dc:type
           rdf:resource="http://purl.org/dc/dcmitype/StillImage" /></cc:Work></rdf:RDF></metadata><sodipodi:namedview
     pagecolor="#ffffff"
     bordercolor="#666666"
     borderopacity="1"
     objecttolerance="10"
     gridtolerance="10"
     guidetolerance="10"
     inkscape:pageopacity="0"
     inkscape:pageshadow="2"
     inkscape:window-width="1920"
     inkscape:window-height="1017"
     id="namedview36"
     showgrid="false"
     inkscape:zoom="1.2551145"
     inkscape:cx="612.24575"
     inkscape:cy="360.21177"
     inkscape:window-x="-8"
     inkscape:window-y="-8"
     inkscape:window-maximized="1"
     inkscape:current-layer="svg100" /><defs
     id="defs3"><path
       id="a"
       d="M-5-1h62v62H-5z" /><clipPath
       id="d-5"><use
         xlink:href="#c-8"
         overflow="visible"
         style="overflow:visible"
         width="100%"
         height="100%"
         id="use11-8" /></clipPath><path
       id="a-0"
       d="M-5-1h62v62H-5z" /><path
       id="c-8"
       d="M-5-1h62v62H-5z" /><clipPath
       id="d-5-6"><use
         xlink:href="#c"
         overflow="visible"
         style="overflow:visible"
         width="100%"
         height="100%"
         id="use11-8-0" /></clipPath><path
       id="a-7"
       d="M-5-1h62v62H-5z" /><path
       id="c"
       d="M-5-1h62v62H-5z" /><clipPath
       id="d-5-2"><use
         xlink:href="#c-88"
         overflow="visible"
         style="overflow:visible"
         width="100%"
         height="100%"
         id="use11-8-7" /></clipPath><path
       id="a-5"
       d="M -5,-1 H 57 V 61 H -5 Z" /><path
       id="c-88"
       d="M -5,-1 H 57 V 61 H -5 Z" /><clipPath
       id="d-5-8"><use
         id="use885"
         xlink:href="#c-1"
         overflow="visible"
         height="100%"
         width="100%" /></clipPath><path
       d="m-5-1h62v62h-62z"
       id="a-2" /><path
       d="m-5-1h62v62h-62z"
       id="c-1" /></defs><clipPath
     id="b"><use
       xlink:href="#a"
       overflow="visible"
       style="overflow:visible"
       width="100%"
       height="100%"
       id="use5" /></clipPath><path
     style="opacity:1;fill:#fff;fill-opacity:1;fill-rule:nonzero;stroke:none;stroke-width:.67433947;stroke-linecap:round;stroke-linejoin:round;stroke-miterlimit:4;stroke-dasharray:none;stroke-dashoffset:0;stroke-opacity:1;paint-order:markers stroke fill"
     d="M-4.898-26.749h1280v640h-1280z"
     transform="translate(4.898 26.75)"
     id="path8" /><g
     id="g918"
     transform="matrix(7.8112319,0,0,7.8112319,436.90725,84.79331)"><defs
       id="defs891"><path
         d="M -5,-1 H 57 V 61 H -5 Z"
         id="path929"
         inkscape:connector-curvature="0" /></defs><clipPath
       id="b-0"><use
         id="use893"
         xlink:href="#a-2"
         overflow="visible"
         height="100%"
         width="100%"
         style="overflow:visible"
         x="0"
         y="0" /></clipPath><g
       id="g916"
       clip-path="url(#b-0)"><defs
         id="defs897"><path
           d="M -5,-1 H 57 V 61 H -5 Z"
           id="path934"
           inkscape:connector-curvature="0" /></defs><clipPath
         id="d"><use
           id="use899"
           xlink:href="#c-1"
           overflow="visible"
           height="100%"
           width="100%"
           style="overflow:visible"
           x="0"
           y="0" /></clipPath><g
         id="g914"
         stroke-miterlimit="10"
         style="stroke:#000000;stroke-linecap:round;stroke-linejoin:round;stroke-miterlimit:10"><path
           id="path902"
           clip-path="url(#d)"
           d="m 38.361,22.877 -12.4,-7.3 9.2e-5,-14.177 24.8,14.2 v 28.8 l -12.4,-7.3226 z"
           transform="translate(0.039092,0.02257)"
           inkscape:connector-curvature="0"
           style="fill:#4688b4" /><path
           id="path904"
           clip-path="url(#d-5-8)"
           d="m 38.4,22.923 -12.522,-7.0887 0.14178,-14.4 24.78,14.166 v 28.8 l -12.522,-7.0883 z"
           transform="rotate(120,26,30.082)"
           inkscape:connector-curvature="0"
           style="fill:#64c0ff" /><path
           id="path906"
           clip-path="url(#d)"
           d="M 26,30 V 44.4 L 38.4,37.1 V 22.9 Z"
           inkscape:connector-curvature="0"
           style="fill:#294e67" /><path
           id="path908"
           clip-path="url(#d)"
           d="M 13.6,37.1 V 22.9 L 26,15.6 V 1.423 L 1.2,15.6 v 28.8 z"
           inkscape:connector-curvature="0"
           style="fill:#294e67" /><path
           id="path910"
           clip-path="url(#d)"
           d="M 26,15.6 13.6,22.9 26,30 38.4,22.9 Z"
           inkscape:connector-curvature="0"
           style="fill:#64c0ff" /><path
           id="path912"
           clip-path="url(#d)"
           d="M 13.6,22.9 26,30 V 44.4 L 13.6,37.1 Z"
           inkscape:connector-curvature="0"
           style="fill:#4688b4" /></g></g></g></svg>