<svg version="1.1" id="Layer_1" xmlns="http://www.w3.org/2000/svg" x="0" y="0" viewBox="0 0 18 18" style="enable-background:new 0 0 18 18" xml:space="preserve"><style>.st1{fill:#fff}</style><path d="M17.9 16.3c0-.1-.5-1.8-1.3-3.4.6-1.1.8-2.3.8-3.6 0-4.8-4-8.8-8.8-8.8C3.9.5 0 4.4 0 9.2c0 2.4.9 4.6 2.6 6.2C4.3 17.1 6.5 18 8.8 18c1.7 0 3.1-.4 4.3-1.1 1.6.2 2.9.9 2.9.9.5.3 1 .2 1.4-.1.5-.3.7-.9.5-1.4z" style="fill:#263238"/><circle class="st1" cx="5" cy="9" r="1"/><circle class="st1" cx="9" cy="9" r="1"/><circle class="st1" cx="13" cy="9" r="1"/></svg>