<svg xmlns="http://www.w3.org/2000/svg" xml:space="preserve" width="18" height="18"><style/><path d="M9.6 6.8h.5c-.7-1.9-2.4-3.3-4.6-3.3C2.9 3.5.8 5.6.8 8.2c0 .8.2 1.6.6 2.3-.5 1.1-.9 2.4-.9 2.4s1.1-.6 2.5-.7l.6.3c.2-3.1 2.8-5.7 6-5.7z" style="fill:#fafafa"/><path d="M15.268 12.857c.804 1.768 1.446 3.857 1.446 3.857s-1.768-.964-3.857-1.125v0c-1.125.804-2.571 1.125-4.018 1.125a7.545 7.545 0 0 1-7.553-7.553c0-4.179 3.375-7.393 7.393-7.393 4.017 0 7.553 3.375 7.553 7.553 0 1.286-.321 2.411-.964 3.536" style="fill:none;fill-opacity:1;stroke:#3393bd;stroke-width:2.57144523;stroke-linecap:round;stroke-linejoin:round;stroke-miterlimit:10;stroke-dasharray:none;stroke-opacity:1"/></svg>