<?xml version="1.0" encoding="UTF-8" standalone="no"?>
<svg
   width="18"
   height="18"
   viewBox="0 0 18 18"
   fill="none"
   version="1.1"
   id="svg135"
   sodipodi:docname="dark_mode.svg"
   inkscape:version="1.2.1 (9c6d41e410, 2022-07-14)"
   xmlns:inkscape="http://www.inkscape.org/namespaces/inkscape"
   xmlns:sodipodi="http://sodipodi.sourceforge.net/DTD/sodipodi-0.dtd"
   xmlns="http://www.w3.org/2000/svg"
   xmlns:svg="http://www.w3.org/2000/svg">
  <defs
     id="defs139" />
  <sodipodi:namedview
     id="namedview137"
     pagecolor="#ffffff"
     bordercolor="#000000"
     borderopacity="0.25"
     inkscape:showpageshadow="2"
     inkscape:pageopacity="0.0"
     inkscape:pagecheckerboard="0"
     inkscape:deskcolor="#d1d1d1"
     showgrid="true"
     inkscape:zoom="46.055556"
     inkscape:cx="9.0108565"
     inkscape:cy="9.0108565"
     inkscape:window-width="1920"
     inkscape:window-height="1009"
     inkscape:window-x="-8"
     inkscape:window-y="-8"
     inkscape:window-maximized="1"
     inkscape:current-layer="svg135">
    <inkscape:grid
       type="xygrid"
       id="grid258" />
  </sodipodi:namedview>
  <path
     d="m 14.549269,10.694684 c -0.553199,0.294 -1.158998,0.4762 -1.782596,0.5362 -0.623699,0.0599 -1.253097,-0.0036 -1.852096,-0.1868 C 9.7046806,10.673884 8.6912631,9.8382841 8.0973845,8.7209636 7.503516,7.6036735 7.3778863,6.2961934 7.7479854,5.0862633 8.1180745,3.8762832 8.9538324,2.8629431 10.07108,2.2690631 10.446179,2.078573 10.844178,1.936763 11.255277,1.847103 9.7371805,1.368443 8.1061045,1.385213 6.5980782,1.894973 5.0901819,2.4047431 3.783475,3.3810931 2.8671473,4.6827732 1.9509495,5.9844034 1.4725007,7.5437935 1.5012206,9.135404 c 0.02872,1.59158 0.5631086,3.13268 1.5257163,4.40038 0.9627476,1.2677 2.3037644,2.196301 3.8290807,2.651201 1.5254462,0.4551 3.1559624,0.4129 4.6558584,-0.1201 1.499796,-0.5332 2.791293,-1.529701 3.687191,-2.845401 0.895898,-1.3157 1.350197,-2.8824 1.296697,-4.4733304 -0.438499,0.8297304 -1.116897,1.5080304 -1.946495,1.9464304 z"
     stroke="#263238"
     stroke-linecap="round"
     stroke-linejoin="round"
     id="path133"
     style="stroke-width:0.999999" />
</svg>
