<svg xmlns="http://www.w3.org/2000/svg" viewBox="0 0 18 18" style="enable-background:new 0 0 18 18" xml:space="preserve"><path d="M17.5 6.6c0 1.1-.3 2.1-.9 3-.4.6-.8 1.2-1.3 1.8-1 1.1-2.1 2.1-3.3 3-.9.7-1.8 1.4-2.8 2-.2.1-.3.1-.4 0-1.4-.9-2.7-1.9-4-2.9-1-.9-2-1.8-2.8-2.9C1.4 9.8.9 9 .7 8 .5 7.2.4 6.3.6 5.5 1 3.9 2 2.7 3.5 2c.8-.4 1.6-.5 2.5-.4 1 .1 1.9.4 2.7 1 .1.1.2.2.3.2s.2-.1.3-.2c.8-.6 1.7-.9 2.7-1s2 .1 2.9.6 1.6 1.2 2.1 2.2c.3.7.5 1.4.5 2.2z" style="fill:#263238;stroke:#263238;stroke-linecap:round;stroke-linejoin:round;stroke-miterlimit:10"/><path d="M12.5 3.4h.2c1.2.1 2.1.6 2.6 1.7.4.8.5 1.6.2 2.4" style="fill:none;stroke:#fff;stroke-linecap:round;stroke-linejoin:round;stroke-miterlimit:10"/></svg>