<svg xmlns="http://www.w3.org/2000/svg" viewBox="0 0 18 18" xml:space="preserve"><path fill="none" stroke="#263238" stroke-linecap="round" stroke-linejoin="round" stroke-miterlimit="10" d="M13.5 9.5v1M2 15l3.6-3.8c.4-.4 1.2-.7 1.7-.7h9.1c.5 0 .9.3.5.7l-3.6 3.6c-.4.4-1.1.7-1.6.7H2.5c-.5 0-1-.4-1-1v-10c0-.5.4-1 1-1h1.9c.5 0 1.3.3 1.6.7L7.6 6c.4.4 1.1.5 1.6.5h.8m1.5-3 3-3 3 3m-3 .5V.5"/><path fill="none" stroke="#263238" stroke-linecap="round" stroke-linejoin="round" stroke-miterlimit="10" d="M10 8.5c2.5 0 4.5-2 4.5-4.5"/></svg>