<svg xmlns="http://www.w3.org/2000/svg" xml:space="preserve" style="enable-background:new 0 0 18 18" viewBox="0 0 18 18"><path d="M14.9 7.9 17 6.1h0c-.2-.5-.4-.9-.6-1.4-.3-.4-.6-.9-.9-1.2h0l-2.6 1c-.5-.5-1.2-.9-1.9-1.2h0L10.6.6h0C10 .5 9.5.5 9 .5s-1 0-1.5.1h0L7 3.3c-.7.3-1.3.6-1.9 1.1h0l-2.6-1h0c-.3.5-.6.9-.9 1.4-.2.4-.4.9-.6 1.3h0l2.1 1.7c-.1.8-.1 1.6 0 2.3h0L1 11.9h0c.2.5.4.9.6 1.4.3.4.6.9.9 1.2h0l2.6-1c.5.5 1.2.9 1.9 1.2h0l.4 2.7h0c.5.1 1 .1 1.5.1s1 0 1.5-.1h0l.4-2.7c.7-.2 1.4-.6 1.9-1.1h0l2.6 1h0c.3-.4.6-.8.9-1.3.3-.4.5-.9.6-1.4h0l-2.1-1.7c.3-.8.3-1.6.2-2.3" style="fill:none;stroke:#263238;stroke-linecap:round;stroke-linejoin:round"/><circle r="2.5" cy="9" cx="9" style="fill:none;stroke:#263238;stroke-miterlimit:10"/></svg>